STARTFONT 2.1
FONT -FontForge-Noto Sans Cherokee-Book-R-Normal-SansCherokee--24-240-75-75-P-146-ISO10646-1
SIZE 24 75 75
FONTBOUNDINGBOX 43 30 -12 -6
COMMENT "Generated by fontforge, http://fontforge.sourceforge.net"
COMMENT "Copyright 2022 The Noto Project Authors (https://github.com/notofonts/cherokee)"
STARTPROPERTIES 41
FOUNDRY "FontForge"
FAMILY_NAME "Noto Sans Cherokee"
WEIGHT_NAME "Book"
SLANT "R"
SETWIDTH_NAME "Normal"
ADD_STYLE_NAME "SansCherokee"
PIXEL_SIZE 24
POINT_SIZE 240
RESOLUTION_X 75
RESOLUTION_Y 75
SPACING "P"
AVERAGE_WIDTH 146
CHARSET_REGISTRY "ISO10646"
CHARSET_ENCODING "1"
FONTNAME_REGISTRY ""
CHARSET_COLLECTIONS "ISO8859-2 ISO8859-9 ISO8859-4 ISO10646-1"
FONT_NAME "NotoSansCherokee-Regular"
FACE_NAME "Noto Sans Cherokee Regular"
COPYRIGHT "Copyright 2022 The Noto Project Authors (https://github.com/notofonts/cherokee)"
FONT_VERSION "2.001"
FONT_ASCENT 19
FONT_DESCENT 5
UNDERLINE_POSITION -3
UNDERLINE_THICKNESS 2
X_HEIGHT 12
CAP_HEIGHT 16
DEFAULT_CHAR 2
RAW_ASCENT 800
RAW_DESCENT 200
NORM_SPACE 6
RELATIVE_WEIGHT 40
RELATIVE_SETWIDTH 50
SUPERSCRIPT_X 0
SUPERSCRIPT_Y 8
SUPERSCRIPT_SIZE 14
SUBSCRIPT_X 0
SUBSCRIPT_Y 1
SUBSCRIPT_SIZE 14
FIGURE_WIDTH 14
AVG_LOWERCASE_WIDTH 138
AVG_UPPERCASE_WIDTH 171
ENDPROPERTIES
CHARS 601
STARTCHAR NULL
ENCODING 0
SWIDTH 0 0
DWIDTH 0 0
BBX 1 1 0 0
BITMAP
00
ENDCHAR
STARTCHAR CR
ENCODING 13
SWIDTH 260 0
DWIDTH 6 0
BBX 1 1 0 0
BITMAP
00
ENDCHAR
STARTCHAR space
ENCODING 32
SWIDTH 260 0
DWIDTH 6 0
BBX 1 1 0 0
BITMAP
00
ENDCHAR
STARTCHAR exclam
ENCODING 33
SWIDTH 269 0
DWIDTH 6 0
BBX 3 17 2 0
BITMAP
E0
C0
C0
C0
C0
C0
C0
C0
C0
C0
C0
40
00
00
C0
E0
E0
ENDCHAR
STARTCHAR quotedbl
ENCODING 34
SWIDTH 408 0
DWIDTH 10 0
BBX 6 6 2 11
BITMAP
CC
CC
CC
CC
CC
8C
ENDCHAR
STARTCHAR numbersign
ENCODING 35
SWIDTH 646 0
DWIDTH 16 0
BBX 14 17 1 0
BITMAP
0630
0420
0C20
0C60
0C60
FFFC
FFFC
1840
18C0
18C0
FFF8
FFF8
1080
3180
3180
3180
3180
ENDCHAR
STARTCHAR dollar
ENCODING 36
SWIDTH 572 0
DWIDTH 14 0
BBX 11 19 1 -1
BITMAP
0600
0600
1FC0
7FE0
6620
E600
6600
7600
3E00
1F80
07E0
0660
0660
0660
C6E0
FFC0
3F00
0600
0600
ENDCHAR
STARTCHAR percent
ENCODING 37
SWIDTH 831 0
DWIDTH 20 0
BBX 18 17 1 0
BITMAP
7C0E00
660C00
C61800
C61800
C23000
C63000
C66200
C64F80
66D980
7D98C0
0190C0
0310C0
0310C0
0618C0
061880
0C1980
180F00
ENDCHAR
STARTCHAR ampersand
ENCODING 38
SWIDTH 732 0
DWIDTH 18 0
BBX 17 17 1 0
BITMAP
1F8000
39C000
30C000
30C000
30C000
39C000
1F8000
0F0000
3F0600
738600
61C600
E0EC00
C07C00
E03800
607C00
7FEE00
3F8780
ENDCHAR
STARTCHAR quotesingle
ENCODING 39
SWIDTH 225 0
DWIDTH 5 0
BBX 2 6 2 11
BITMAP
C0
C0
C0
C0
C0
80
ENDCHAR
STARTCHAR parenleft
ENCODING 40
SWIDTH 300 0
DWIDTH 7 0
BBX 5 21 1 -4
BITMAP
18
30
30
60
60
60
E0
C0
C0
C0
C0
C0
C0
C0
E0
60
60
70
30
38
18
ENDCHAR
STARTCHAR parenright
ENCODING 41
SWIDTH 300 0
DWIDTH 7 0
BBX 5 21 1 -4
BITMAP
C0
60
60
30
30
38
18
18
18
18
18
18
18
18
18
38
30
30
60
60
C0
ENDCHAR
STARTCHAR asterisk
ENCODING 42
SWIDTH 551 0
DWIDTH 13 0
BBX 11 11 1 7
BITMAP
0E00
0600
0400
C460
FFE0
1F80
0A00
1B00
3980
31C0
1100
ENDCHAR
STARTCHAR plus
ENCODING 43
SWIDTH 572 0
DWIDTH 14 0
BBX 11 11 1 3
BITMAP
0600
0600
0600
0600
0600
FFE0
0600
0600
0600
0600
0600
ENDCHAR
STARTCHAR comma
ENCODING 44
SWIDTH 268 0
DWIDTH 6 0
BBX 4 6 1 -3
BITMAP
70
60
60
60
C0
C0
ENDCHAR
STARTCHAR hyphen
ENCODING 45
SWIDTH 322 0
DWIDTH 8 0
BBX 6 2 1 5
BITMAP
FC
FC
ENDCHAR
STARTCHAR period
ENCODING 46
SWIDTH 268 0
DWIDTH 6 0
BBX 3 3 2 0
BITMAP
C0
E0
E0
ENDCHAR
STARTCHAR slash
ENCODING 47
SWIDTH 372 0
DWIDTH 9 0
BBX 9 17 0 0
BITMAP
0380
0300
0300
0600
0600
0600
0C00
0C00
1800
1800
1800
3000
3000
3000
6000
6000
E000
ENDCHAR
STARTCHAR zero
ENCODING 48
SWIDTH 572 0
DWIDTH 14 0
BBX 12 17 1 0
BITMAP
1F80
3BC0
70C0
6060
6060
C060
C060
C070
C070
C070
C060
C060
6060
6060
70C0
3FC0
1F80
ENDCHAR
STARTCHAR one
ENCODING 49
SWIDTH 572 0
DWIDTH 14 0
BBX 7 17 2 0
BITMAP
0E
1E
76
EE
4E
0E
0E
0E
0E
0E
0E
0E
0E
0E
0E
0E
0E
ENDCHAR
STARTCHAR two
ENCODING 50
SWIDTH 572 0
DWIDTH 14 0
BBX 11 17 1 0
BITMAP
3F80
FBC0
40C0
0060
0060
00E0
00C0
00C0
0180
0300
0600
0C00
1800
3000
6000
FFE0
FFE0
ENDCHAR
STARTCHAR three
ENCODING 51
SWIDTH 572 0
DWIDTH 14 0
BBX 11 17 1 0
BITMAP
3F80
FBC0
40E0
0060
0060
00E0
01C0
1F80
1F80
01C0
0060
0060
0060
0060
80E0
FFC0
FF80
ENDCHAR
STARTCHAR four
ENCODING 52
SWIDTH 572 0
DWIDTH 14 0
BBX 13 17 0 0
BITMAP
00E0
01E0
01E0
0360
0660
0660
0C60
1860
3060
3060
6060
FFF8
FFF8
0060
0060
0060
0060
ENDCHAR
STARTCHAR five
ENCODING 53
SWIDTH 572 0
DWIDTH 14 0
BBX 10 17 2 0
BITMAP
FF80
FF80
C000
C000
C000
C000
C800
FF00
4380
01C0
00C0
00C0
00C0
00C0
81C0
FF80
FE00
ENDCHAR
STARTCHAR six
ENCODING 54
SWIDTH 572 0
DWIDTH 14 0
BBX 12 17 1 0
BITMAP
0FC0
1E40
3800
7000
6000
6000
6700
DFC0
F0E0
E060
E070
C070
6070
6060
7060
3FC0
1F80
ENDCHAR
STARTCHAR seven
ENCODING 55
SWIDTH 572 0
DWIDTH 14 0
BBX 12 17 1 0
BITMAP
FFF0
FFF0
0060
00E0
00C0
00C0
0180
0180
0300
0300
0700
0600
0E00
0C00
1C00
1800
3800
ENDCHAR
STARTCHAR eight
ENCODING 56
SWIDTH 572 0
DWIDTH 14 0
BBX 12 17 1 0
BITMAP
3F80
79C0
6060
6060
6060
60E0
39C0
1F00
1F80
31C0
60E0
C060
C070
C060
E060
7BC0
3F80
ENDCHAR
STARTCHAR nine
ENCODING 57
SWIDTH 572 0
DWIDTH 14 0
BBX 11 17 1 0
BITMAP
3F80
7BC0
60C0
E060
C060
C060
C060
E060
71E0
3F60
0460
0060
0060
00C0
01C0
6F80
7E00
ENDCHAR
STARTCHAR colon
ENCODING 58
SWIDTH 268 0
DWIDTH 6 0
BBX 3 13 2 0
BITMAP
E0
E0
C0
00
00
00
00
00
00
00
C0
E0
E0
ENDCHAR
STARTCHAR semicolon
ENCODING 59
SWIDTH 268 0
DWIDTH 6 0
BBX 4 16 1 -3
BITMAP
60
70
60
00
00
00
00
00
00
00
60
60
60
C0
C0
C0
ENDCHAR
STARTCHAR less
ENCODING 60
SWIDTH 572 0
DWIDTH 14 0
BBX 12 12 1 3
BITMAP
0010
0070
01E0
0780
1E00
7800
E000
7800
1E00
07C0
00F0
0030
ENDCHAR
STARTCHAR equal
ENCODING 61
SWIDTH 572 0
DWIDTH 14 0
BBX 11 7 1 5
BITMAP
FFE0
FFE0
0000
0000
0000
FFE0
FFE0
ENDCHAR
STARTCHAR greater
ENCODING 62
SWIDTH 572 0
DWIDTH 14 0
BBX 12 12 1 3
BITMAP
8000
C000
7000
1C00
0700
01C0
0070
01E0
0780
3C00
F000
C000
ENDCHAR
STARTCHAR question
ENCODING 63
SWIDTH 434 0
DWIDTH 10 0
BBX 10 17 0 0
BITMAP
FF00
7F80
01C0
00C0
00C0
01C0
0380
0700
0E00
0C00
1800
1800
0000
0000
1800
1C00
1C00
ENDCHAR
STARTCHAR at
ENCODING 64
SWIDTH 899 0
DWIDTH 22 0
BBX 19 19 1 -2
BITMAP
01FC00
07DF00
1C0180
1800C0
3000C0
61FC60
638C60
430C60
C60C60
C60C60
C60C60
C61C60
4314C0
63E780
600000
300000
380000
0FBE00
07FC00
ENDCHAR
STARTCHAR A
ENCODING 65
SWIDTH 639 0
DWIDTH 15 0
BBX 15 17 0 0
BITMAP
0380
0380
03C0
06C0
06C0
0E60
0C60
0C30
1830
1830
1FF8
3FF8
301C
700C
600C
6006
C006
ENDCHAR
STARTCHAR B
ENCODING 66
SWIDTH 650 0
DWIDTH 16 0
BBX 12 17 2 0
BITMAP
FF80
FFE0
C060
C070
C070
C070
C060
FFC0
FFC0
C060
C030
C030
C030
C030
C070
FFE0
FF80
ENDCHAR
STARTCHAR C
ENCODING 67
SWIDTH 632 0
DWIDTH 15 0
BBX 13 17 1 0
BITMAP
07F8
1FF8
3800
3000
7000
6000
6000
E000
E000
E000
6000
6000
7000
3000
3800
1FF8
07F8
ENDCHAR
STARTCHAR D
ENCODING 68
SWIDTH 730 0
DWIDTH 18 0
BBX 14 17 2 0
BITMAP
FF80
FFE0
C070
C038
C018
C01C
C00C
C00C
C00C
C00C
C00C
C01C
C018
C038
C0F0
FFE0
FF80
ENDCHAR
STARTCHAR E
ENCODING 69
SWIDTH 556 0
DWIDTH 13 0
BBX 10 17 2 0
BITMAP
FFC0
FFC0
C000
C000
C000
C000
C000
FF80
FF80
C000
C000
C000
C000
C000
C000
FFC0
FFC0
ENDCHAR
STARTCHAR F
ENCODING 70
SWIDTH 519 0
DWIDTH 12 0
BBX 10 17 2 0
BITMAP
FFC0
FFC0
C000
C000
C000
C000
C000
C000
FF80
FF80
C000
C000
C000
C000
C000
C000
C000
ENDCHAR
STARTCHAR G
ENCODING 71
SWIDTH 728 0
DWIDTH 17 0
BBX 15 17 1 0
BITMAP
07FC
1FFC
3C04
3000
7000
6000
6000
E000
E07E
E07E
6006
6006
7006
3006
3806
1FFE
07FC
ENDCHAR
STARTCHAR H
ENCODING 72
SWIDTH 741 0
DWIDTH 18 0
BBX 13 17 2 0
BITMAP
C018
C018
C018
C018
C018
C018
C018
FFF8
FFF8
C018
C018
C018
C018
C018
C018
C018
C018
ENDCHAR
STARTCHAR I
ENCODING 73
SWIDTH 339 0
DWIDTH 8 0
BBX 6 17 1 0
BITMAP
FC
38
30
30
30
30
30
30
30
30
30
30
30
30
30
78
FC
ENDCHAR
STARTCHAR J
ENCODING 74
SWIDTH 273 0
DWIDTH 7 0
BBX 6 22 -2 -5
BITMAP
0C
0C
0C
0C
0C
0C
0C
0C
0C
0C
0C
0C
0C
0C
0C
0C
0C
0C
0C
9C
F8
40
ENDCHAR
STARTCHAR K
ENCODING 75
SWIDTH 619 0
DWIDTH 15 0
BBX 13 17 2 0
BITMAP
C078
C060
C0C0
C180
C300
C600
CE00
DC00
FE00
E600
C700
C380
C1C0
C0C0
C0E0
C070
C038
ENDCHAR
STARTCHAR L
ENCODING 76
SWIDTH 524 0
DWIDTH 13 0
BBX 10 17 2 0
BITMAP
C000
C000
C000
C000
C000
C000
C000
C000
C000
C000
C000
C000
C000
C000
C000
FFC0
FFC0
ENDCHAR
STARTCHAR M
ENCODING 77
SWIDTH 907 0
DWIDTH 22 0
BBX 17 17 2 0
BITMAP
F00380
F00380
F80780
D80780
D80D80
CC0D80
CC0D80
CC1980
C61980
C61980
C73180
C33180
C36180
C1E180
C1E180
C1C180
C0C180
ENDCHAR
STARTCHAR N
ENCODING 78
SWIDTH 760 0
DWIDTH 18 0
BBX 14 17 2 0
BITMAP
E00C
F00C
F80C
D80C
DC0C
CC0C
C60C
C70C
C30C
C18C
C1CC
C0CC
C0EC
C07C
C03C
C03C
C01C
ENDCHAR
STARTCHAR O
ENCODING 79
SWIDTH 781 0
DWIDTH 19 0
BBX 16 17 1 0
BITMAP
0FF0
1FFC
380E
7006
6007
6003
6003
E003
E003
E003
6003
6003
6007
3006
380E
1FFC
07F0
ENDCHAR
STARTCHAR P
ENCODING 80
SWIDTH 605 0
DWIDTH 15 0
BBX 11 17 2 0
BITMAP
FF80
FFC0
C0E0
C060
C060
C060
C060
C0E0
FFC0
FF80
C000
C000
C000
C000
C000
C000
C000
ENDCHAR
STARTCHAR Q
ENCODING 81
SWIDTH 781 0
DWIDTH 19 0
BBX 16 21 1 -4
BITMAP
0FF0
1FFC
380E
7006
6007
6003
6003
E003
E003
E003
6003
6003
6007
3006
380E
1FFC
07F0
0070
0038
001C
000E
ENDCHAR
STARTCHAR R
ENCODING 82
SWIDTH 622 0
DWIDTH 15 0
BBX 13 17 2 0
BITMAP
FF80
FFC0
C0E0
C060
C060
C060
C060
C0C0
FF80
FF00
C380
C180
C1C0
C0C0
C060
C070
C038
ENDCHAR
STARTCHAR S
ENCODING 83
SWIDTH 549 0
DWIDTH 13 0
BBX 11 17 1 0
BITMAP
3FE0
7FC0
6000
E000
E000
6000
7000
3C00
1F80
03C0
00E0
0060
0060
0060
80E0
FFC0
FF80
ENDCHAR
STARTCHAR T
ENCODING 84
SWIDTH 556 0
DWIDTH 13 0
BBX 13 17 0 0
BITMAP
FFF8
FFF8
0300
0300
0300
0300
0300
0300
0300
0300
0300
0300
0300
0300
0300
0300
0300
ENDCHAR
STARTCHAR U
ENCODING 85
SWIDTH 731 0
DWIDTH 18 0
BBX 13 17 2 0
BITMAP
C018
C018
C018
C018
C018
C018
C018
C018
C018
C018
C018
C018
C018
6018
7030
3FF0
1FC0
ENDCHAR
STARTCHAR V
ENCODING 86
SWIDTH 600 0
DWIDTH 14 0
BBX 14 17 0 0
BITMAP
C00C
600C
6018
7018
3038
3030
3830
1870
1860
1C60
0CE0
0CC0
06C0
07C0
0780
0380
0300
ENDCHAR
STARTCHAR W
ENCODING 87
SWIDTH 930 0
DWIDTH 22 0
BBX 22 17 0 0
BITMAP
E0300C
60781C
607818
607818
306C18
30CC38
30CC30
30CC30
198630
198660
198660
198360
0F0360
0F03C0
0F01C0
0E01C0
0601C0
ENDCHAR
STARTCHAR X
ENCODING 88
SWIDTH 586 0
DWIDTH 14 0
BBX 14 17 0 0
BITMAP
E01C
3038
3830
1860
1CE0
0CC0
0780
0780
0780
0780
0CC0
0CC0
1860
3870
3030
6018
E01C
ENDCHAR
STARTCHAR Y
ENCODING 89
SWIDTH 566 0
DWIDTH 14 0
BBX 14 17 0 0
BITMAP
E01C
6038
7030
3070
3860
18E0
0CC0
0D80
0780
0700
0300
0300
0300
0300
0300
0300
0300
ENDCHAR
STARTCHAR Z
ENCODING 90
SWIDTH 572 0
DWIDTH 14 0
BBX 12 17 1 0
BITMAP
FFF0
FFF0
00E0
00C0
01C0
0380
0300
0700
0E00
0C00
1C00
3800
3000
7000
E000
FFF0
FFF0
ENDCHAR
STARTCHAR bracketleft
ENCODING 91
SWIDTH 329 0
DWIDTH 8 0
BBX 5 21 2 -4
BITMAP
F8
F8
C0
C0
C0
C0
C0
C0
C0
C0
C0
C0
C0
C0
C0
C0
C0
C0
C0
F8
F8
ENDCHAR
STARTCHAR backslash
ENCODING 92
SWIDTH 372 0
DWIDTH 9 0
BBX 9 17 0 0
BITMAP
E000
6000
6000
3000
3000
3000
1800
1800
1C00
0C00
0C00
0600
0600
0600
0300
0300
0380
ENDCHAR
STARTCHAR bracketright
ENCODING 93
SWIDTH 329 0
DWIDTH 8 0
BBX 5 21 1 -4
BITMAP
F8
F8
18
18
18
18
18
18
18
18
18
18
18
18
18
18
18
18
18
F8
F8
ENDCHAR
STARTCHAR asciicircum
ENCODING 94
SWIDTH 572 0
DWIDTH 14 0
BBX 12 11 1 6
BITMAP
0600
0E00
0B00
1B00
1980
3180
30C0
60C0
6060
C060
C030
ENDCHAR
STARTCHAR underscore
ENCODING 95
SWIDTH 444 0
DWIDTH 11 0
BBX 11 2 0 -4
BITMAP
FFE0
FFE0
ENDCHAR
STARTCHAR grave
ENCODING 96
SWIDTH 281 0
DWIDTH 7 0
BBX 5 3 1 15
BITMAP
E0
70
38
ENDCHAR
STARTCHAR a
ENCODING 97
SWIDTH 561 0
DWIDTH 13 0
BBX 11 13 1 0
BITMAP
1F80
3FC0
20C0
00C0
00E0
07E0
3FE0
60E0
C0E0
C0E0
E1E0
7760
7E60
ENDCHAR
STARTCHAR b
ENCODING 98
SWIDTH 615 0
DWIDTH 15 0
BBX 11 18 2 0
BITMAP
C000
C000
C000
C000
C000
CF80
FFC0
E0E0
E060
C060
C060
C060
C060
C060
E060
E0E0
FFC0
DF80
ENDCHAR
STARTCHAR c
ENCODING 99
SWIDTH 480 0
DWIDTH 12 0
BBX 10 13 1 0
BITMAP
1FC0
3F80
7000
6000
E000
E000
E000
E000
E000
6000
7000
3FC0
1FC0
ENDCHAR
STARTCHAR d
ENCODING 100
SWIDTH 615 0
DWIDTH 15 0
BBX 12 18 1 0
BITMAP
0030
0030
0030
0030
0030
1F30
3FB0
70F0
6070
E070
E030
E030
E030
E070
6070
7070
3FB0
1F30
ENDCHAR
STARTCHAR e
ENCODING 101
SWIDTH 564 0
DWIDTH 14 0
BBX 11 13 1 0
BITMAP
1F80
3FC0
70E0
6060
6060
FFE0
FFE0
E000
E000
6000
7000
3FE0
1FE0
ENDCHAR
STARTCHAR f
ENCODING 102
SWIDTH 344 0
DWIDTH 8 0
BBX 9 18 0 0
BITMAP
0F80
1C80
1800
1800
1800
7F00
FF00
1800
1800
1800
1800
1800
1800
1800
1800
1800
1800
1800
ENDCHAR
STARTCHAR g
ENCODING 103
SWIDTH 615 0
DWIDTH 15 0
BBX 12 19 1 -6
BITMAP
1F30
3FB0
70F0
6070
E070
E030
E030
E030
E030
6070
7070
3FB0
1F30
0030
0070
0060
60E0
7FC0
1F00
ENDCHAR
STARTCHAR h
ENCODING 104
SWIDTH 618 0
DWIDTH 15 0
BBX 11 18 2 0
BITMAP
C000
C000
C000
C000
C000
CF80
FFC0
E0E0
E060
C060
C060
C060
C060
C060
C060
C060
C060
C060
ENDCHAR
STARTCHAR i
ENCODING 105
SWIDTH 258 0
DWIDTH 6 0
BBX 2 18 2 0
BITMAP
40
C0
C0
00
00
C0
C0
C0
C0
C0
C0
C0
C0
C0
C0
C0
C0
C0
ENDCHAR
STARTCHAR j
ENCODING 106
SWIDTH 258 0
DWIDTH 6 0
BBX 5 24 -1 -6
BITMAP
08
18
18
00
00
18
18
18
18
18
18
18
18
18
18
18
18
18
18
18
18
18
F0
E0
ENDCHAR
STARTCHAR k
ENCODING 107
SWIDTH 534 0
DWIDTH 13 0
BBX 11 18 2 0
BITMAP
C000
C000
C000
C000
C000
C1C0
C380
C300
C600
CC00
D800
FC00
EC00
C600
C700
C380
C180
C0E0
ENDCHAR
STARTCHAR l
ENCODING 108
SWIDTH 258 0
DWIDTH 6 0
BBX 2 18 2 0
BITMAP
C0
C0
C0
C0
C0
C0
C0
C0
C0
C0
C0
C0
C0
C0
C0
C0
C0
C0
ENDCHAR
STARTCHAR m
ENCODING 109
SWIDTH 935 0
DWIDTH 22 0
BBX 19 13 2 0
BITMAP
CF8F80
FFFFC0
E0E0C0
E0E0C0
C0C0C0
C0C0E0
C0C0E0
C0C0E0
C0C0E0
C0C0E0
C0C0E0
C0C0E0
C0C0E0
ENDCHAR
STARTCHAR n
ENCODING 110
SWIDTH 618 0
DWIDTH 15 0
BBX 11 13 2 0
BITMAP
CF80
FFC0
E0E0
E060
C060
C060
C060
C060
C060
C060
C060
C060
C060
ENDCHAR
STARTCHAR o
ENCODING 111
SWIDTH 605 0
DWIDTH 15 0
BBX 12 13 1 0
BITMAP
1F80
3FC0
7060
6070
E030
E030
E030
E030
E030
6070
7060
3FE0
1F80
ENDCHAR
STARTCHAR p
ENCODING 112
SWIDTH 615 0
DWIDTH 15 0
BBX 11 19 2 -6
BITMAP
CF80
FFC0
E0E0
E060
C060
C060
C060
C060
C060
E060
E0E0
FFC0
DF80
C000
C000
C000
C000
C000
C000
ENDCHAR
STARTCHAR q
ENCODING 113
SWIDTH 615 0
DWIDTH 15 0
BBX 12 19 1 -6
BITMAP
1F30
3FB0
70F0
6070
E070
E030
E030
E030
E070
6070
7070
3FB0
1F30
0030
0030
0030
0030
0030
0030
ENDCHAR
STARTCHAR r
ENCODING 114
SWIDTH 413 0
DWIDTH 10 0
BBX 8 13 2 0
BITMAP
CF
DE
F0
E0
C0
C0
C0
C0
C0
C0
C0
C0
C0
ENDCHAR
STARTCHAR s
ENCODING 115
SWIDTH 479 0
DWIDTH 12 0
BBX 9 13 1 0
BITMAP
3F80
7F80
C000
C000
E000
7800
1F00
0780
0180
0180
8180
F780
FF00
ENDCHAR
STARTCHAR t
ENCODING 116
SWIDTH 361 0
DWIDTH 9 0
BBX 8 16 0 0
BITMAP
10
10
30
7F
FF
30
30
30
30
30
30
30
30
38
1D
1F
ENDCHAR
STARTCHAR u
ENCODING 117
SWIDTH 618 0
DWIDTH 15 0
BBX 11 13 2 0
BITMAP
C060
C060
C060
C060
C060
C060
C060
C060
C060
C0E0
E0E0
7FE0
3E60
ENDCHAR
STARTCHAR v
ENCODING 118
SWIDTH 508 0
DWIDTH 12 0
BBX 12 13 0 0
BITMAP
C030
6070
6060
6060
30E0
30C0
38C0
1980
1980
0D80
0F00
0F00
0600
ENDCHAR
STARTCHAR w
ENCODING 119
SWIDTH 786 0
DWIDTH 19 0
BBX 19 13 0 0
BITMAP
E0E0E0
60E0C0
60E0C0
61B0C0
71B180
31B180
331980
331B80
1B1B00
1E1B00
1E0F00
1E0E00
0C0E00
ENDCHAR
STARTCHAR x
ENCODING 120
SWIDTH 529 0
DWIDTH 13 0
BBX 12 13 0 0
BITMAP
6070
3060
38C0
19C0
0D80
0F00
0700
0F00
0D80
19C0
38C0
7060
E030
ENDCHAR
STARTCHAR y
ENCODING 121
SWIDTH 510 0
DWIDTH 12 0
BBX 12 19 0 -6
BITMAP
C030
6070
6060
7060
30E0
30C0
18C0
1980
1980
0D80
0F00
0700
0700
0600
0600
0C00
1C00
F800
E000
ENDCHAR
STARTCHAR z
ENCODING 122
SWIDTH 470 0
DWIDTH 11 0
BBX 9 13 1 0
BITMAP
FF80
FF80
0380
0300
0600
0E00
0C00
1800
3000
7000
6000
FF80
FF80
ENDCHAR
STARTCHAR braceleft
ENCODING 123
SWIDTH 380 0
DWIDTH 9 0
BBX 7 21 1 -4
BITMAP
0E
1E
18
18
18
18
18
18
30
F0
C0
70
38
18
18
18
18
18
18
1E
02
ENDCHAR
STARTCHAR bar
ENCODING 124
SWIDTH 551 0
DWIDTH 13 0
BBX 1 24 6 -6
BITMAP
80
80
80
80
80
80
80
80
80
80
80
80
80
80
80
80
80
80
80
80
80
80
80
80
ENDCHAR
STARTCHAR braceright
ENCODING 125
SWIDTH 380 0
DWIDTH 9 0
BBX 7 21 1 -4
BITMAP
E0
F0
30
38
38
38
38
38
18
1E
06
1C
18
38
38
38
38
30
30
F0
C0
ENDCHAR
STARTCHAR asciitilde
ENCODING 126
SWIDTH 572 0
DWIDTH 14 0
BBX 12 3 1 7
BITMAP
7C10
FFF0
83E0
ENDCHAR
STARTCHAR uni00A0
ENCODING 160
SWIDTH 260 0
DWIDTH 6 0
BBX 1 1 0 0
BITMAP
00
ENDCHAR
STARTCHAR exclamdown
ENCODING 161
SWIDTH 269 0
DWIDTH 6 0
BBX 3 17 2 -4
BITMAP
C0
E0
C0
00
00
C0
C0
C0
C0
C0
C0
C0
C0
C0
C0
C0
C0
ENDCHAR
STARTCHAR cent
ENCODING 162
SWIDTH 572 0
DWIDTH 14 0
BBX 10 17 2 0
BITMAP
0400
0400
1FC0
7980
6000
E000
C000
C000
C000
C000
E000
6000
7040
3F80
1F80
0400
0400
ENDCHAR
STARTCHAR sterling
ENCODING 163
SWIDTH 572 0
DWIDTH 14 0
BBX 12 17 1 0
BITMAP
0FE0
1CE0
3800
3000
3000
3000
3000
3000
FF80
3000
3000
3000
3000
3000
6000
FFF0
FFF0
ENDCHAR
STARTCHAR yen
ENCODING 165
SWIDTH 572 0
DWIDTH 14 0
BBX 13 17 0 0
BITMAP
E018
6030
3030
3060
1860
18C0
0CC0
0D80
0780
3FF0
0300
0300
3FF0
3FF0
0300
0300
0300
ENDCHAR
STARTCHAR section
ENCODING 167
SWIDTH 513 0
DWIDTH 12 0
BBX 10 18 1 0
BITMAP
3FC0
7180
6000
6000
7800
3E00
6780
6180
40C0
60C0
7180
3F80
0780
0180
00C0
01C0
F780
7F00
ENDCHAR
STARTCHAR dieresis
ENCODING 168
SWIDTH 580 0
DWIDTH 14 0
BBX 6 3 4 15
BITMAP
84
CC
CC
ENDCHAR
STARTCHAR copyright
ENCODING 169
SWIDTH 832 0
DWIDTH 20 0
BBX 18 17 1 0
BITMAP
07F800
1C0E00
300300
21F100
63F180
460080
C600C0
C600C0
C400C0
C600C0
C600C0
460080
63F180
20E100
300700
1C0C00
07F800
ENDCHAR
STARTCHAR ordfeminine
ENCODING 170
SWIDTH 357 0
DWIDTH 9 0
BBX 6 8 1 9
BITMAP
FC
84
04
7C
C4
84
DC
74
ENDCHAR
STARTCHAR guillemotleft
ENCODING 171
SWIDTH 509 0
DWIDTH 12 0
BBX 10 10 1 1
BITMAP
1CC0
39C0
3380
6300
C600
E700
7300
3180
1CC0
0880
ENDCHAR
STARTCHAR registered
ENCODING 174
SWIDTH 832 0
DWIDTH 20 0
BBX 18 17 1 0
BITMAP
07F800
1C0E00
300300
23E100
63F180
431080
C318C0
C330C0
C3F0C0
C3E0C0
C330C0
433080
631980
231900
300700
1C0C00
07F800
ENDCHAR
STARTCHAR overscore
ENCODING 175
SWIDTH 500 0
DWIDTH 12 0
BBX 12 2 0 18
BITMAP
FFF0
FFF0
ENDCHAR
STARTCHAR degree
ENCODING 176
SWIDTH 428 0
DWIDTH 10 0
BBX 8 7 1 10
BITMAP
3E
63
C3
C3
C3
76
3C
ENDCHAR
STARTCHAR acute
ENCODING 180
SWIDTH 281 0
DWIDTH 7 0
BBX 5 3 1 15
BITMAP
38
60
C0
ENDCHAR
STARTCHAR paragraph
ENCODING 182
SWIDTH 655 0
DWIDTH 16 0
BBX 12 21 1 -3
BITMAP
3FF0
7F10
7F10
FF10
FF10
FF10
FF10
FF10
7F10
7F10
3F10
0F10
0110
0110
0110
0110
0110
0110
0110
0110
0110
ENDCHAR
STARTCHAR periodcentered
ENCODING 183
SWIDTH 268 0
DWIDTH 6 0
BBX 3 3 2 7
BITMAP
C0
E0
E0
ENDCHAR
STARTCHAR cedilla
ENCODING 184
SWIDTH 225 0
DWIDTH 5 0
BBX 5 6 0 -6
BITMAP
30
70
18
18
F8
F0
ENDCHAR
STARTCHAR ordmasculine
ENCODING 186
SWIDTH 376 0
DWIDTH 9 0
BBX 7 8 1 9
BITMAP
7C
C6
82
82
82
C6
6C
38
ENDCHAR
STARTCHAR guillemotright
ENCODING 187
SWIDTH 509 0
DWIDTH 12 0
BBX 10 10 1 1
BITMAP
C600
6700
3380
3980
18C0
19C0
3180
6300
C600
4200
ENDCHAR
STARTCHAR questiondown
ENCODING 191
SWIDTH 434 0
DWIDTH 10 0
BBX 9 18 1 -5
BITMAP
0C00
0E00
0C00
0000
0000
0C00
0C00
0C00
1800
3000
6000
C000
C000
C000
C000
E380
7F80
0800
ENDCHAR
STARTCHAR Agrave
ENCODING 192
SWIDTH 639 0
DWIDTH 15 0
BBX 15 22 0 0
BITMAP
0700
0300
0180
0000
0000
0380
0380
03C0
06C0
06C0
0E60
0C60
0C30
1830
1830
1FF8
3FF8
301C
700C
600C
6006
C006
ENDCHAR
STARTCHAR Aacute
ENCODING 193
SWIDTH 639 0
DWIDTH 15 0
BBX 15 22 0 0
BITMAP
00E0
0180
0300
0000
0000
0380
0380
03C0
06C0
06C0
0E60
0C60
0C30
1830
1830
1FF8
3FF8
301C
700C
600C
6006
C006
ENDCHAR
STARTCHAR Acircumflex
ENCODING 194
SWIDTH 639 0
DWIDTH 15 0
BBX 15 22 0 0
BITMAP
0380
06C0
0C60
0010
0000
0380
0380
03C0
06C0
06C0
0E60
0C60
0C30
1830
1830
1FF8
3FF8
301C
700C
600C
6006
C006
ENDCHAR
STARTCHAR Atilde
ENCODING 195
SWIDTH 639 0
DWIDTH 15 0
BBX 15 22 0 0
BITMAP
0410
0FB0
19E0
0000
0000
0380
0380
03C0
06C0
06C0
0E60
0C60
0C30
1830
1830
1FF8
3FF8
301C
700C
600C
6006
C006
ENDCHAR
STARTCHAR Adieresis
ENCODING 196
SWIDTH 639 0
DWIDTH 15 0
BBX 15 22 0 0
BITMAP
0440
0E60
0460
0000
0000
0380
0380
03C0
06C0
06C0
0E60
0C60
0C30
1830
1830
1FF8
3FF8
301C
700C
600C
6006
C006
ENDCHAR
STARTCHAR Aring
ENCODING 197
SWIDTH 639 0
DWIDTH 15 0
BBX 15 21 0 0
BITMAP
0100
07C0
0440
0440
07C0
0380
03C0
06C0
06C0
0E60
0C60
0C30
1830
1830
1FF8
3FF8
301C
700C
600C
6006
C006
ENDCHAR
STARTCHAR AE
ENCODING 198
SWIDTH 881 0
DWIDTH 21 0
BBX 20 17 0 0
BITMAP
00FFF0
01FFF0
019800
039800
031800
071800
061800
0E1FE0
0C1FE0
0C1800
1FF800
1FF800
301800
301800
601800
601FF0
C01FF0
ENDCHAR
STARTCHAR Ccedilla
ENCODING 199
SWIDTH 632 0
DWIDTH 15 0
BBX 13 23 1 -6
BITMAP
07F8
1FF8
3800
3000
7000
6000
6000
E000
E000
E000
6000
6000
7000
3000
3800
1FF8
07F8
0180
0180
02C0
0040
03C0
0380
ENDCHAR
STARTCHAR Egrave
ENCODING 200
SWIDTH 556 0
DWIDTH 13 0
BBX 10 22 2 0
BITMAP
3800
0C00
0600
0000
0000
FFC0
FFC0
C000
C000
C000
C000
C000
FF80
FF80
C000
C000
C000
C000
C000
C000
FFC0
FFC0
ENDCHAR
STARTCHAR Eacute
ENCODING 201
SWIDTH 556 0
DWIDTH 13 0
BBX 10 22 2 0
BITMAP
0700
0600
0C00
0000
0000
FFC0
FFC0
C000
C000
C000
C000
C000
FF80
FF80
C000
C000
C000
C000
C000
C000
FFC0
FFC0
ENDCHAR
STARTCHAR Ecircumflex
ENCODING 202
SWIDTH 556 0
DWIDTH 13 0
BBX 10 22 2 0
BITMAP
0E00
1F00
3180
4000
0000
FFC0
FFC0
C000
C000
C000
C000
C000
FF80
FF80
C000
C000
C000
C000
C000
C000
FFC0
FFC0
ENDCHAR
STARTCHAR Edieresis
ENCODING 203
SWIDTH 556 0
DWIDTH 13 0
BBX 10 22 2 0
BITMAP
1100
3380
3100
0000
0000
FFC0
FFC0
C000
C000
C000
C000
C000
FF80
FF80
C000
C000
C000
C000
C000
C000
FFC0
FFC0
ENDCHAR
STARTCHAR Igrave
ENCODING 204
SWIDTH 339 0
DWIDTH 8 0
BBX 6 22 1 0
BITMAP
E0
70
30
08
00
FC
38
30
30
30
30
30
30
30
30
30
30
30
30
30
78
FC
ENDCHAR
STARTCHAR Iacute
ENCODING 205
SWIDTH 339 0
DWIDTH 8 0
BBX 6 22 1 0
BITMAP
1C
38
30
40
00
FC
38
30
30
30
30
30
30
30
30
30
30
30
30
30
78
FC
ENDCHAR
STARTCHAR Icircumflex
ENCODING 206
SWIDTH 339 0
DWIDTH 8 0
BBX 8 22 0 0
BITMAP
3C
3E
66
81
00
7E
1C
18
18
18
18
18
18
18
18
18
18
18
18
18
3C
7E
ENDCHAR
STARTCHAR Idieresis
ENCODING 207
SWIDTH 339 0
DWIDTH 8 0
BBX 6 22 1 0
BITMAP
84
CC
C4
00
00
FC
38
30
30
30
30
30
30
30
30
30
30
30
30
30
78
FC
ENDCHAR
STARTCHAR Eth
ENCODING 208
SWIDTH 730 0
DWIDTH 18 0
BBX 15 17 1 0
BITMAP
7FC0
7FF0
7038
701C
700C
700E
7006
7006
FF06
7006
7006
700E
700C
701C
7078
7FF0
7FC0
ENDCHAR
STARTCHAR Ntilde
ENCODING 209
SWIDTH 760 0
DWIDTH 18 0
BBX 14 22 2 0
BITMAP
0430
1F20
11E0
0000
0000
E00C
F00C
F80C
D80C
DC0C
CC0C
C60C
C70C
C30C
C18C
C1CC
C0CC
C0EC
C07C
C03C
C03C
C01C
ENDCHAR
STARTCHAR Ograve
ENCODING 210
SWIDTH 781 0
DWIDTH 19 0
BBX 16 22 1 0
BITMAP
0700
0180
00C0
0000
0000
0FF0
1FFC
380E
7006
6007
6003
6003
E003
E003
E003
6003
6003
6007
3006
380E
1FFC
07F0
ENDCHAR
STARTCHAR Oacute
ENCODING 211
SWIDTH 781 0
DWIDTH 19 0
BBX 16 22 1 0
BITMAP
00E0
00C0
0180
0000
0000
0FF0
1FFC
380E
7006
6007
6003
6003
E003
E003
E003
6003
6003
6007
3006
380E
1FFC
07F0
ENDCHAR
STARTCHAR Ocircumflex
ENCODING 212
SWIDTH 781 0
DWIDTH 19 0
BBX 16 22 1 0
BITMAP
01C0
0360
0630
0800
0000
0FF0
1FFC
380E
7006
6007
6003
6003
E003
E003
E003
6003
6003
6007
3006
380E
1FFC
07F0
ENDCHAR
STARTCHAR Otilde
ENCODING 213
SWIDTH 781 0
DWIDTH 19 0
BBX 16 22 1 0
BITMAP
0208
0798
0CF0
0000
0000
0FF0
1FFC
380E
7006
6007
6003
6003
E003
E003
E003
6003
6003
6007
3006
380E
1FFC
07F0
ENDCHAR
STARTCHAR Odieresis
ENCODING 214
SWIDTH 781 0
DWIDTH 19 0
BBX 16 22 1 0
BITMAP
0220
0630
0620
0000
0000
0FF0
1FFC
380E
7006
6007
6003
6003
E003
E003
E003
6003
6003
6007
3006
380E
1FFC
07F0
ENDCHAR
STARTCHAR multiply
ENCODING 215
SWIDTH 572 0
DWIDTH 14 0
BBX 10 11 2 3
BITMAP
8080
C0C0
6180
3300
1E00
0C00
1E00
3300
6180
C0C0
8080
ENDCHAR
STARTCHAR Oslash
ENCODING 216
SWIDTH 781 0
DWIDTH 19 0
BBX 16 19 1 -1
BITMAP
0004
0FF6
1FFC
381E
701E
6037
6063
6063
E0C3
E183
6383
6303
6603
7C07
3C06
380E
3FFC
77F0
2000
ENDCHAR
STARTCHAR Ugrave
ENCODING 217
SWIDTH 731 0
DWIDTH 18 0
BBX 13 22 2 0
BITMAP
0E00
0600
0300
0000
0000
C018
C018
C018
C018
C018
C018
C018
C018
C018
C018
C018
C018
C018
6018
7030
3FF0
1FC0
ENDCHAR
STARTCHAR Uacute
ENCODING 218
SWIDTH 731 0
DWIDTH 18 0
BBX 13 22 2 0
BITMAP
01C0
0300
0300
0400
0000
C018
C018
C018
C018
C018
C018
C018
C018
C018
C018
C018
C018
C018
6018
7030
3FF0
1FC0
ENDCHAR
STARTCHAR Ucircumflex
ENCODING 219
SWIDTH 731 0
DWIDTH 18 0
BBX 13 22 2 0
BITMAP
0700
0F80
18C0
0020
0000
C018
C018
C018
C018
C018
C018
C018
C018
C018
C018
C018
C018
C018
6018
7030
3FF0
1FC0
ENDCHAR
STARTCHAR Udieresis
ENCODING 220
SWIDTH 731 0
DWIDTH 18 0
BBX 13 22 2 0
BITMAP
0840
1CC0
08C0
0000
0000
C018
C018
C018
C018
C018
C018
C018
C018
C018
C018
C018
C018
C018
6018
7030
3FF0
1FC0
ENDCHAR
STARTCHAR Yacute
ENCODING 221
SWIDTH 566 0
DWIDTH 14 0
BBX 14 22 0 0
BITMAP
01C0
0300
0300
0400
0004
E018
6038
7030
3070
3860
18E0
0CC0
0D80
0780
0700
0300
0300
0300
0300
0300
0300
0300
ENDCHAR
STARTCHAR Thorn
ENCODING 222
SWIDTH 605 0
DWIDTH 15 0
BBX 11 17 2 0
BITMAP
C000
C000
C000
FF80
FFC0
C0E0
C060
C060
C060
C060
C0E0
FFC0
FF80
C000
C000
C000
C000
ENDCHAR
STARTCHAR germandbls
ENCODING 223
SWIDTH 631 0
DWIDTH 15 0
BBX 12 18 2 0
BITMAP
3F80
7BC0
E0C0
C0E0
C0C0
C1C0
C300
C600
C600
C700
C3C0
C0E0
C070
C030
C030
C030
CEF0
CFE0
ENDCHAR
STARTCHAR agrave
ENCODING 224
SWIDTH 561 0
DWIDTH 13 0
BBX 11 18 1 0
BITMAP
1C00
0C00
0600
0000
0000
1F80
3FC0
20C0
00C0
00E0
07E0
3FE0
60E0
C0E0
C0E0
E1E0
7760
7E60
ENDCHAR
STARTCHAR aacute
ENCODING 225
SWIDTH 561 0
DWIDTH 13 0
BBX 11 18 1 0
BITMAP
0380
0600
0C00
0000
0000
1F80
3FC0
20C0
00C0
00E0
07E0
3FE0
60E0
C0E0
C0E0
E1E0
7760
7E60
ENDCHAR
STARTCHAR acircumflex
ENCODING 226
SWIDTH 561 0
DWIDTH 13 0
BBX 11 18 1 0
BITMAP
0E00
1F00
3180
0040
0000
1F80
3FC0
20C0
00C0
00E0
07E0
3FE0
60E0
C0E0
C0E0
E1E0
7760
7E60
ENDCHAR
STARTCHAR atilde
ENCODING 227
SWIDTH 561 0
DWIDTH 13 0
BBX 11 18 1 0
BITMAP
1840
3EC0
2780
4000
0000
1F80
3FC0
20C0
00C0
00E0
07E0
3FE0
60E0
C0E0
C0E0
E1E0
7760
7E60
ENDCHAR
STARTCHAR adieresis
ENCODING 228
SWIDTH 561 0
DWIDTH 13 0
BBX 11 18 1 0
BITMAP
1100
3980
1180
0000
0000
1F80
3FC0
20C0
00C0
00E0
07E0
3FE0
60E0
C0E0
C0E0
E1E0
7760
7E60
ENDCHAR
STARTCHAR aring
ENCODING 229
SWIDTH 561 0
DWIDTH 13 0
BBX 11 20 1 0
BITMAP
0600
1F00
1100
1100
0F00
0000
0000
1F80
3FC0
20C0
00C0
00E0
07E0
3FE0
60E0
C0E0
C0E0
E1E0
7760
7E60
ENDCHAR
STARTCHAR ae
ENCODING 230
SWIDTH 864 0
DWIDTH 21 0
BBX 19 13 1 0
BITMAP
3F1F00
7FBF80
40E1C0
00E0C0
00C0C0
0FFFE0
7FFFE0
60C000
C0C000
C0E000
C1E000
773FC0
3E1FC0
ENDCHAR
STARTCHAR ccedilla
ENCODING 231
SWIDTH 480 0
DWIDTH 12 0
BBX 10 19 1 -6
BITMAP
1FC0
3F80
7000
6000
E000
E000
E000
E000
E000
6000
7000
3FC0
1FC0
0400
0E00
0300
0300
1F00
1C00
ENDCHAR
STARTCHAR egrave
ENCODING 232
SWIDTH 564 0
DWIDTH 14 0
BBX 11 18 1 0
BITMAP
1C00
0C00
0600
0100
0000
1F80
3FC0
70E0
6060
6060
FFE0
FFE0
E000
E000
6000
7000
3FE0
1FE0
ENDCHAR
STARTCHAR eacute
ENCODING 233
SWIDTH 564 0
DWIDTH 14 0
BBX 11 18 1 0
BITMAP
0380
0700
0600
0800
0000
1F80
3FC0
70E0
6060
6060
FFE0
FFE0
E000
E000
6000
7000
3FE0
1FE0
ENDCHAR
STARTCHAR ecircumflex
ENCODING 234
SWIDTH 564 0
DWIDTH 14 0
BBX 11 18 1 0
BITMAP
0E00
1F00
3980
0040
0000
1F80
3FC0
70E0
6060
6060
FFE0
FFE0
E000
E000
6000
7000
3FE0
1FE0
ENDCHAR
STARTCHAR edieresis
ENCODING 235
SWIDTH 564 0
DWIDTH 14 0
BBX 11 18 1 0
BITMAP
1080
3980
1180
0000
0000
1F80
3FC0
70E0
6060
6060
FFE0
FFE0
E000
E000
6000
7000
3FE0
1FE0
ENDCHAR
STARTCHAR igrave
ENCODING 236
SWIDTH 258 0
DWIDTH 6 0
BBX 5 18 0 0
BITMAP
E0
70
30
08
00
30
30
30
30
30
30
30
30
30
30
30
30
30
ENDCHAR
STARTCHAR iacute
ENCODING 237
SWIDTH 258 0
DWIDTH 6 0
BBX 5 18 1 0
BITMAP
38
70
60
80
00
60
60
60
60
60
60
60
60
60
60
60
60
60
ENDCHAR
STARTCHAR icircumflex
ENCODING 238
SWIDTH 258 0
DWIDTH 6 0
BBX 8 18 -1 0
BITMAP
3C
3E
66
81
00
18
18
18
18
18
18
18
18
18
18
18
18
18
ENDCHAR
STARTCHAR idieresis
ENCODING 239
SWIDTH 258 0
DWIDTH 6 0
BBX 6 18 0 0
BITMAP
84
CC
C4
00
00
30
30
30
30
30
30
30
30
30
30
30
30
30
ENDCHAR
STARTCHAR eth
ENCODING 240
SWIDTH 605 0
DWIDTH 15 0
BBX 12 18 1 0
BITMAP
1C60
0FC0
0780
1F80
18C0
0060
0060
1FB0
3DF0
6070
6030
E030
C030
E030
6030
6060
3FE0
1F80
ENDCHAR
STARTCHAR ntilde
ENCODING 241
SWIDTH 618 0
DWIDTH 15 0
BBX 11 18 2 0
BITMAP
1040
3CC0
6780
0000
0000
CF80
FFC0
E0E0
E060
C060
C060
C060
C060
C060
C060
C060
C060
C060
ENDCHAR
STARTCHAR ograve
ENCODING 242
SWIDTH 605 0
DWIDTH 15 0
BBX 12 18 1 0
BITMAP
1C00
0E00
0600
0100
0000
1F80
3FC0
7060
6070
E030
E030
E030
E030
E030
6070
7060
3FE0
1F80
ENDCHAR
STARTCHAR oacute
ENCODING 243
SWIDTH 605 0
DWIDTH 15 0
BBX 12 18 1 0
BITMAP
0380
0300
0600
0000
0000
1F80
3FC0
7060
6070
E030
E030
E030
E030
E030
6070
7060
3FE0
1F80
ENDCHAR
STARTCHAR ocircumflex
ENCODING 244
SWIDTH 605 0
DWIDTH 15 0
BBX 12 18 1 0
BITMAP
0700
0F80
19C0
2000
0000
1F80
3FC0
7060
6070
E030
E030
E030
E030
E030
6070
7060
3FE0
1F80
ENDCHAR
STARTCHAR otilde
ENCODING 245
SWIDTH 605 0
DWIDTH 15 0
BBX 12 18 1 0
BITMAP
0860
1E40
33C0
0000
0000
1F80
3FC0
7060
6070
E030
E030
E030
E030
E030
6070
7060
3FE0
1F80
ENDCHAR
STARTCHAR odieresis
ENCODING 246
SWIDTH 605 0
DWIDTH 15 0
BBX 12 18 1 0
BITMAP
0880
19C0
1880
0000
0000
1F80
3FC0
7060
6070
E030
E030
E030
E030
E030
6070
7060
3FE0
1F80
ENDCHAR
STARTCHAR divide
ENCODING 247
SWIDTH 572 0
DWIDTH 14 0
BBX 12 11 1 3
BITMAP
0600
0E00
0600
0000
0000
FFF0
0000
0000
0600
0E00
0600
ENDCHAR
STARTCHAR oslash
ENCODING 248
SWIDTH 605 0
DWIDTH 15 0
BBX 12 15 1 -1
BITMAP
0020
1FB0
3FE0
70E0
61F0
E1B0
E330
E630
E630
EC30
7870
7860
3FE0
7F80
2000
ENDCHAR
STARTCHAR ugrave
ENCODING 249
SWIDTH 618 0
DWIDTH 15 0
BBX 11 18 2 0
BITMAP
3800
0C00
0600
0000
0000
C060
C060
C060
C060
C060
C060
C060
C060
C060
C0E0
E0E0
7FE0
3E60
ENDCHAR
STARTCHAR uacute
ENCODING 250
SWIDTH 618 0
DWIDTH 15 0
BBX 11 18 2 0
BITMAP
0700
0600
0C00
0000
0000
C060
C060
C060
C060
C060
C060
C060
C060
C060
C0E0
E0E0
7FE0
3E60
ENDCHAR
STARTCHAR ucircumflex
ENCODING 251
SWIDTH 618 0
DWIDTH 15 0
BBX 11 18 2 0
BITMAP
0E00
1B00
3180
4000
0000
C060
C060
C060
C060
C060
C060
C060
C060
C060
C0E0
E0E0
7FE0
3E60
ENDCHAR
STARTCHAR udieresis
ENCODING 252
SWIDTH 618 0
DWIDTH 15 0
BBX 11 18 2 0
BITMAP
1100
3180
3180
0000
0000
C060
C060
C060
C060
C060
C060
C060
C060
C060
C0E0
E0E0
7FE0
3E60
ENDCHAR
STARTCHAR yacute
ENCODING 253
SWIDTH 510 0
DWIDTH 12 0
BBX 12 24 0 -6
BITMAP
0380
0300
0600
0800
0000
C030
6070
6060
7060
30E0
30C0
18C0
1980
1980
0D80
0F00
0700
0700
0600
0600
0C00
1C00
F800
E000
ENDCHAR
STARTCHAR thorn
ENCODING 254
SWIDTH 615 0
DWIDTH 15 0
BBX 11 24 2 -6
BITMAP
C000
C000
C000
C000
C000
CF80
FFC0
E0E0
E060
C060
C060
C060
C060
C060
E060
E0E0
FFC0
DF80
C000
C000
C000
C000
C000
C000
ENDCHAR
STARTCHAR ydieresis
ENCODING 255
SWIDTH 510 0
DWIDTH 12 0
BBX 12 24 0 -6
BITMAP
1080
19C0
1880
0000
0000
C030
6070
6060
7060
30E0
30C0
18C0
1980
1980
0D80
0F00
0700
0700
0600
0600
0C00
1C00
F800
E000
ENDCHAR
STARTCHAR Amacron
ENCODING 256
SWIDTH 639 0
DWIDTH 15 0
BBX 15 20 0 0
BITMAP
0FE0
0000
0000
0380
0380
03C0
06C0
06C0
0E60
0C60
0C30
1830
1830
1FF8
3FF8
301C
700C
600C
6006
C006
ENDCHAR
STARTCHAR amacron
ENCODING 257
SWIDTH 561 0
DWIDTH 13 0
BBX 11 16 1 0
BITMAP
3F80
0000
0000
1F80
3FC0
20C0
00C0
00E0
07E0
3FE0
60E0
C0E0
C0E0
E1E0
7760
7E60
ENDCHAR
STARTCHAR Abreve
ENCODING 258
SWIDTH 639 0
DWIDTH 15 0
BBX 15 22 0 0
BITMAP
0820
0C60
07C0
0000
0000
0380
0380
03C0
06C0
06C0
0E60
0C60
0C30
1830
1830
1FF8
3FF8
301C
700C
600C
6006
C006
ENDCHAR
STARTCHAR abreve
ENCODING 259
SWIDTH 561 0
DWIDTH 13 0
BBX 11 18 1 0
BITMAP
2080
3180
1F00
0000
0000
1F80
3FC0
20C0
00C0
00E0
07E0
3FE0
60E0
C0E0
C0E0
E1E0
7760
7E60
ENDCHAR
STARTCHAR Aogonek
ENCODING 260
SWIDTH 639 0
DWIDTH 15 0
BBX 15 22 0 -5
BITMAP
0380
0380
03C0
06C0
06C0
0E60
0C60
0C30
1830
1830
1FF8
3FF8
301C
700C
600C
6006
C006
0004
0008
0018
0018
000E
ENDCHAR
STARTCHAR aogonek
ENCODING 261
SWIDTH 561 0
DWIDTH 13 0
BBX 11 18 1 -5
BITMAP
1F80
3FC0
20C0
00C0
00E0
07E0
3FE0
60E0
C0E0
C0E0
E1E0
7760
7E60
00C0
0080
0180
0180
00E0
ENDCHAR
STARTCHAR Cacute
ENCODING 262
SWIDTH 632 0
DWIDTH 15 0
BBX 13 22 1 0
BITMAP
00E0
00C0
0180
0200
0000
07F8
1FF8
3800
3000
7000
6000
6000
E000
E000
E000
6000
6000
7000
3000
3800
1FF8
07F8
ENDCHAR
STARTCHAR cacute
ENCODING 263
SWIDTH 480 0
DWIDTH 12 0
BBX 10 18 1 0
BITMAP
0380
0700
0600
0800
0000
1FC0
3F80
7000
6000
E000
E000
E000
E000
E000
6000
7000
3FC0
1FC0
ENDCHAR
STARTCHAR Cdotaccent
ENCODING 266
SWIDTH 632 0
DWIDTH 15 0
BBX 13 22 1 0
BITMAP
0180
0180
0180
0000
0000
07F8
1FF8
3800
3000
7000
6000
6000
E000
E000
E000
6000
6000
7000
3000
3800
1FF8
07F8
ENDCHAR
STARTCHAR cdotaccent
ENCODING 267
SWIDTH 480 0
DWIDTH 12 0
BBX 10 18 1 0
BITMAP
0400
0600
0600
0000
0000
1FC0
3F80
7000
6000
E000
E000
E000
E000
E000
6000
7000
3FC0
1FC0
ENDCHAR
STARTCHAR Ccaron
ENCODING 268
SWIDTH 632 0
DWIDTH 15 0
BBX 13 22 1 0
BITMAP
0E30
03E0
03C0
0000
0000
07F8
1FF8
3800
3000
7000
6000
6000
E000
E000
E000
6000
6000
7000
3000
3800
1FF8
07F8
ENDCHAR
STARTCHAR ccaron
ENCODING 269
SWIDTH 480 0
DWIDTH 12 0
BBX 10 18 1 0
BITMAP
31C0
1B00
0F00
0000
0000
1FC0
3F80
7000
6000
E000
E000
E000
E000
E000
6000
7000
3FC0
1FC0
ENDCHAR
STARTCHAR Dcaron
ENCODING 270
SWIDTH 730 0
DWIDTH 18 0
BBX 14 22 2 0
BITMAP
18E0
0D80
0700
0000
0000
FF80
FFE0
C070
C038
C018
C01C
C00C
C00C
C00C
C00C
C00C
C01C
C018
C038
C0F0
FFE0
FF80
ENDCHAR
STARTCHAR dcaron
ENCODING 271
SWIDTH 615 0
DWIDTH 15 0
BBX 16 18 1 0
BITMAP
0037
0036
0034
0034
0030
1F30
3FB0
70F0
6070
E070
E030
E030
E030
E070
6070
7070
3FB0
1F30
ENDCHAR
STARTCHAR Dcroat
ENCODING 272
SWIDTH 730 0
DWIDTH 18 0
BBX 15 17 1 0
BITMAP
7FC0
7FF0
7038
701C
700C
700E
7006
7006
FF06
7006
7006
700E
700C
701C
7078
7FF0
7FC0
ENDCHAR
STARTCHAR dcroat
ENCODING 273
SWIDTH 617 0
DWIDTH 15 0
BBX 14 18 1 0
BITMAP
0030
0030
0FFC
0030
0030
1F30
3FB0
70F0
6070
E070
E030
E030
E030
E070
6070
7070
3FB0
1F30
ENDCHAR
STARTCHAR Emacron
ENCODING 274
SWIDTH 556 0
DWIDTH 13 0
BBX 10 20 2 0
BITMAP
3F80
0000
0000
FFC0
FFC0
C000
C000
C000
C000
C000
FF80
FF80
C000
C000
C000
C000
C000
C000
FFC0
FFC0
ENDCHAR
STARTCHAR emacron
ENCODING 275
SWIDTH 564 0
DWIDTH 14 0
BBX 11 16 1 0
BITMAP
3F80
0000
0000
1F80
3FC0
70E0
6060
6060
FFE0
FFE0
E000
E000
6000
7000
3FE0
1FE0
ENDCHAR
STARTCHAR Edotaccent
ENCODING 278
SWIDTH 556 0
DWIDTH 13 0
BBX 10 22 2 0
BITMAP
0400
0E00
0C00
0000
0000
FFC0
FFC0
C000
C000
C000
C000
C000
FF80
FF80
C000
C000
C000
C000
C000
C000
FFC0
FFC0
ENDCHAR
STARTCHAR edotaccent
ENCODING 279
SWIDTH 564 0
DWIDTH 14 0
BBX 11 18 1 0
BITMAP
0600
0600
0600
0000
0000
1F80
3FC0
70E0
6060
6060
FFE0
FFE0
E000
E000
6000
7000
3FE0
1FE0
ENDCHAR
STARTCHAR Eogonek
ENCODING 280
SWIDTH 556 0
DWIDTH 13 0
BBX 10 22 2 -5
BITMAP
FFC0
FFC0
C000
C000
C000
C000
C000
FF80
FF80
C000
C000
C000
C000
C000
C000
FFC0
FFC0
0180
0300
0300
0300
03C0
ENDCHAR
STARTCHAR eogonek
ENCODING 281
SWIDTH 564 0
DWIDTH 14 0
BBX 11 18 1 -5
BITMAP
1F80
3FC0
70E0
6060
6060
FFE0
FFE0
E000
E000
6000
7000
3FE0
1FE0
00C0
0180
0100
0180
01E0
ENDCHAR
STARTCHAR Ecaron
ENCODING 282
SWIDTH 556 0
DWIDTH 13 0
BBX 10 22 2 0
BITMAP
7180
1B00
0E00
0000
0000
FFC0
FFC0
C000
C000
C000
C000
C000
FF80
FF80
C000
C000
C000
C000
C000
C000
FFC0
FFC0
ENDCHAR
STARTCHAR ecaron
ENCODING 283
SWIDTH 564 0
DWIDTH 14 0
BBX 11 18 1 0
BITMAP
31C0
1B00
0F00
0000
0000
1F80
3FC0
70E0
6060
6060
FFE0
FFE0
E000
E000
6000
7000
3FE0
1FE0
ENDCHAR
STARTCHAR Gbreve
ENCODING 286
SWIDTH 728 0
DWIDTH 17 0
BBX 15 22 1 0
BITMAP
0410
0630
03E0
0000
0000
07FC
1FFC
3C04
3000
7000
6000
6000
E000
E07E
E07E
6006
6006
7006
3006
3806
1FFE
07FC
ENDCHAR
STARTCHAR gbreve
ENCODING 287
SWIDTH 615 0
DWIDTH 15 0
BBX 12 24 1 -6
BITMAP
30C0
10C0
1F80
0000
0000
1F30
3FB0
70F0
6070
E070
E030
E030
E030
E030
6070
7070
3FB0
1F30
0030
0070
0060
60E0
7FC0
1F00
ENDCHAR
STARTCHAR Gdotaccent
ENCODING 288
SWIDTH 728 0
DWIDTH 17 0
BBX 15 22 1 0
BITMAP
0080
01C0
00C0
0000
0000
07FC
1FFC
3C04
3000
7000
6000
6000
E000
E07E
E07E
6006
6006
7006
3006
3806
1FFE
07FC
ENDCHAR
STARTCHAR gdotaccent
ENCODING 289
SWIDTH 615 0
DWIDTH 15 0
BBX 12 24 1 -6
BITMAP
0600
0600
0600
0000
0000
1F30
3FB0
70F0
6070
E070
E030
E030
E030
E030
6070
7070
3FB0
1F30
0030
0070
0060
60E0
7FC0
1F00
ENDCHAR
STARTCHAR uni0122
ENCODING 290
SWIDTH 728 0
DWIDTH 17 0
BBX 15 22 1 -5
BITMAP
07FC
1FFC
3C04
3000
7000
6000
6000
E000
E07E
E07E
6006
6006
7006
3006
3806
1FFE
07FC
0000
00C0
00C0
0080
0180
ENDCHAR
STARTCHAR uni0123
ENCODING 291
SWIDTH 615 0
DWIDTH 15 0
BBX 12 24 1 -6
BITMAP
0300
0600
0600
0000
0000
1F30
3FB0
70F0
6070
E070
E030
E030
E030
E030
6070
7070
3FB0
1F30
0030
0070
0060
60E0
7FC0
1F00
ENDCHAR
STARTCHAR Hbar
ENCODING 294
SWIDTH 741 0
DWIDTH 18 0
BBX 18 17 0 0
BITMAP
300600
300600
300600
FFFFC0
300600
300600
300600
3FFE00
3FFE00
300600
300600
300600
300600
300600
300600
300600
300600
ENDCHAR
STARTCHAR hbar
ENCODING 295
SWIDTH 618 0
DWIDTH 15 0
BBX 13 18 0 0
BITMAP
3000
3000
FF80
FF80
3000
31C0
37F0
3C70
3838
3018
3018
3018
3018
3018
3018
3018
3018
3018
ENDCHAR
STARTCHAR Imacron
ENCODING 298
SWIDTH 339 0
DWIDTH 8 0
BBX 7 20 1 0
BITMAP
FE
00
00
FC
38
30
30
30
30
30
30
30
30
30
30
30
30
30
78
FC
ENDCHAR
STARTCHAR imacron
ENCODING 299
SWIDTH 258 0
DWIDTH 6 0
BBX 7 16 0 0
BITMAP
FE
00
00
30
30
30
30
30
30
30
30
30
30
30
30
30
ENDCHAR
STARTCHAR Iogonek
ENCODING 302
SWIDTH 339 0
DWIDTH 8 0
BBX 6 22 1 -5
BITMAP
FC
38
30
30
30
30
30
30
30
30
30
30
30
30
30
78
FC
18
10
30
30
1C
ENDCHAR
STARTCHAR iogonek
ENCODING 303
SWIDTH 258 0
DWIDTH 6 0
BBX 4 23 1 -5
BITMAP
20
60
60
00
00
60
60
60
60
60
60
60
60
60
60
60
60
60
60
C0
80
C0
F0
ENDCHAR
STARTCHAR Idotaccent
ENCODING 304
SWIDTH 339 0
DWIDTH 8 0
BBX 6 22 1 0
BITMAP
10
30
30
00
00
FC
38
30
30
30
30
30
30
30
30
30
30
30
30
30
78
FC
ENDCHAR
STARTCHAR dotlessi
ENCODING 305
SWIDTH 258 0
DWIDTH 6 0
BBX 2 13 2 0
BITMAP
C0
C0
C0
C0
C0
C0
C0
C0
C0
C0
C0
C0
C0
ENDCHAR
STARTCHAR IJ
ENCODING 306
SWIDTH 612 0
DWIDTH 15 0
BBX 12 22 1 -5
BITMAP
FC70
3870
3070
3070
3070
3070
3070
3070
3070
3070
3070
3070
3070
3070
3070
7870
FC70
0060
0060
04E0
07C0
0300
ENDCHAR
STARTCHAR ij
ENCODING 307
SWIDTH 516 0
DWIDTH 12 0
BBX 9 24 2 -6
BITMAP
4100
C380
C300
0000
0000
C300
C300
C300
C300
C300
C300
C300
C300
C300
C300
C300
C300
C300
0300
0300
0300
0300
1F00
1C00
ENDCHAR
STARTCHAR uni0136
ENCODING 310
SWIDTH 619 0
DWIDTH 15 0
BBX 13 22 2 -5
BITMAP
C078
C060
C0C0
C180
C300
C600
CE00
DC00
FE00
E600
C700
C380
C1C0
C0C0
C0E0
C070
C038
0000
0600
0600
0600
0C00
ENDCHAR
STARTCHAR uni0137
ENCODING 311
SWIDTH 534 0
DWIDTH 13 0
BBX 11 23 2 -5
BITMAP
C000
C000
C000
C000
C000
C1C0
C380
C300
C600
CC00
D800
FC00
EC00
C600
C700
C380
C180
C0E0
0000
0C00
0C00
1800
1800
ENDCHAR
STARTCHAR Lacute
ENCODING 313
SWIDTH 524 0
DWIDTH 13 0
BBX 10 22 2 0
BITMAP
7000
6000
C000
0000
0000
C000
C000
C000
C000
C000
C000
C000
C000
C000
C000
C000
C000
C000
C000
C000
FFC0
FFC0
ENDCHAR
STARTCHAR lacute
ENCODING 314
SWIDTH 258 0
DWIDTH 6 0
BBX 5 23 1 0
BITMAP
38
70
60
80
00
60
60
60
60
60
60
60
60
60
60
60
60
60
60
60
60
60
60
ENDCHAR
STARTCHAR uni013B
ENCODING 315
SWIDTH 524 0
DWIDTH 13 0
BBX 10 22 2 -5
BITMAP
C000
C000
C000
C000
C000
C000
C000
C000
C000
C000
C000
C000
C000
C000
C000
FFC0
FFC0
0000
0600
0C00
0C00
0800
ENDCHAR
STARTCHAR uni013C
ENCODING 316
SWIDTH 258 0
DWIDTH 6 0
BBX 3 23 2 -5
BITMAP
C0
C0
C0
C0
C0
C0
C0
C0
C0
C0
C0
C0
C0
C0
C0
C0
C0
C0
00
60
C0
C0
80
ENDCHAR
STARTCHAR Lcaron
ENCODING 317
SWIDTH 524 0
DWIDTH 13 0
BBX 10 17 2 0
BITMAP
C0C0
C080
C180
C100
C000
C000
C000
C000
C000
C000
C000
C000
C000
C000
C000
FFC0
FFC0
ENDCHAR
STARTCHAR lcaron
ENCODING 318
SWIDTH 258 0
DWIDTH 6 0
BBX 6 18 2 0
BITMAP
CC
CC
D8
D0
C0
C0
C0
C0
C0
C0
C0
C0
C0
C0
C0
C0
C0
C0
ENDCHAR
STARTCHAR Lslash
ENCODING 321
SWIDTH 524 0
DWIDTH 13 0
BBX 12 17 0 0
BITMAP
3000
3000
3000
3000
3000
3000
3100
3780
3E00
3800
F000
7000
3000
3000
3000
3FF0
3FF0
ENDCHAR
STARTCHAR lslash
ENCODING 322
SWIDTH 258 0
DWIDTH 6 0
BBX 6 18 0 0
BITMAP
30
30
30
30
30
30
30
3C
3C
70
F0
B0
30
30
30
30
30
30
ENDCHAR
STARTCHAR Nacute
ENCODING 323
SWIDTH 760 0
DWIDTH 18 0
BBX 14 22 2 0
BITMAP
01C0
0180
0300
0400
0000
E00C
F00C
F80C
D80C
DC0C
CC0C
C60C
C70C
C30C
C18C
C1CC
C0CC
C0EC
C07C
C03C
C03C
C01C
ENDCHAR
STARTCHAR nacute
ENCODING 324
SWIDTH 618 0
DWIDTH 15 0
BBX 11 18 2 0
BITMAP
0700
0600
0C00
0000
0000
CF80
FFC0
E0E0
E060
C060
C060
C060
C060
C060
C060
C060
C060
C060
ENDCHAR
STARTCHAR uni0145
ENCODING 325
SWIDTH 760 0
DWIDTH 18 0
BBX 14 22 2 -5
BITMAP
E00C
F00C
F80C
D80C
DC0C
CC0C
C60C
C70C
C30C
C18C
C1CC
C0CC
C0EC
C07C
C03C
C03C
C01C
0000
0180
0300
0300
0200
ENDCHAR
STARTCHAR uni0146
ENCODING 326
SWIDTH 618 0
DWIDTH 15 0
BBX 11 18 2 -5
BITMAP
CF80
FFC0
E0E0
E060
C060
C060
C060
C060
C060
C060
C060
C060
C060
0000
0600
0600
0C00
0C00
ENDCHAR
STARTCHAR Ncaron
ENCODING 327
SWIDTH 760 0
DWIDTH 18 0
BBX 14 22 2 0
BITMAP
1C60
07C0
0780
0000
0000
E00C
F00C
F80C
D80C
DC0C
CC0C
C60C
C70C
C30C
C18C
C1CC
C0CC
C0EC
C07C
C03C
C03C
C01C
ENDCHAR
STARTCHAR ncaron
ENCODING 328
SWIDTH 618 0
DWIDTH 15 0
BBX 11 18 2 0
BITMAP
7180
1B00
0E00
0000
0000
CF80
FFC0
E0E0
E060
C060
C060
C060
C060
C060
C060
C060
C060
C060
ENDCHAR
STARTCHAR Eng
ENCODING 330
SWIDTH 760 0
DWIDTH 18 0
BBX 14 22 2 -5
BITMAP
E00C
F00C
F80C
D80C
DC0C
CE0C
C60C
C70C
C38C
C18C
C1CC
C0EC
C06C
C03C
C03C
C01C
C00C
000C
000C
0138
00F8
0040
ENDCHAR
STARTCHAR eng
ENCODING 331
SWIDTH 618 0
DWIDTH 15 0
BBX 11 19 2 -6
BITMAP
CF80
FFC0
E0E0
E060
C060
C060
C060
C060
C060
C060
C060
C060
C060
0060
0060
0060
00E0
03C0
0380
ENDCHAR
STARTCHAR Omacron
ENCODING 332
SWIDTH 781 0
DWIDTH 19 0
BBX 16 20 1 0
BITMAP
07F0
0000
0000
0FF0
1FFC
380E
7006
6007
6003
6003
E003
E003
E003
6003
6003
6007
3006
380E
1FFC
07F0
ENDCHAR
STARTCHAR omacron
ENCODING 333
SWIDTH 605 0
DWIDTH 15 0
BBX 12 16 1 0
BITMAP
1FC0
0000
0000
1F80
3FC0
7060
6070
E030
E030
E030
E030
E030
6070
7060
3FE0
1F80
ENDCHAR
STARTCHAR Ohungarumlaut
ENCODING 336
SWIDTH 781 0
DWIDTH 19 0
BBX 16 22 1 0
BITMAP
0338
0660
0460
0880
0000
0FF0
1FFC
380E
7006
6007
6003
6003
E003
E003
E003
6003
6003
6007
3006
380E
1FFC
07F0
ENDCHAR
STARTCHAR ohungarumlaut
ENCODING 337
SWIDTH 605 0
DWIDTH 15 0
BBX 12 18 1 0
BITMAP
0CE0
1980
3100
0200
0000
1F80
3FC0
7060
6070
E030
E030
E030
E030
E030
6070
7060
3FE0
1F80
ENDCHAR
STARTCHAR OE
ENCODING 338
SWIDTH 928 0
DWIDTH 22 0
BBX 20 17 1 0
BITMAP
0FFFF0
1FFFF0
381800
701800
601800
601800
601800
E01FE0
E01FE0
E01800
601800
601800
601800
301800
381800
1FFFF0
07FFF0
ENDCHAR
STARTCHAR oe
ENCODING 339
SWIDTH 946 0
DWIDTH 23 0
BBX 20 13 1 0
BITMAP
1F87C0
3FCFE0
70F870
607030
E03030
E03FF0
E03FF0
E03000
E03000
607000
707800
3FCFF0
1F87F0
ENDCHAR
STARTCHAR Racute
ENCODING 340
SWIDTH 622 0
DWIDTH 15 0
BBX 13 22 2 0
BITMAP
0780
0600
0C00
0000
0000
FF80
FFC0
C0E0
C060
C060
C060
C060
C0C0
FF80
FF00
C380
C180
C1C0
C0C0
C060
C070
C038
ENDCHAR
STARTCHAR racute
ENCODING 341
SWIDTH 413 0
DWIDTH 10 0
BBX 8 18 2 0
BITMAP
0E
18
30
00
00
CF
DE
F0
E0
C0
C0
C0
C0
C0
C0
C0
C0
C0
ENDCHAR
STARTCHAR uni0156
ENCODING 342
SWIDTH 622 0
DWIDTH 15 0
BBX 13 22 2 -5
BITMAP
FF80
FFC0
C0E0
C060
C060
C060
C060
C0C0
FF80
FF00
C380
C180
C1C0
C0C0
C060
C070
C038
0000
0600
0600
0600
0C00
ENDCHAR
STARTCHAR uni0157
ENCODING 343
SWIDTH 413 0
DWIDTH 10 0
BBX 9 18 1 -5
BITMAP
6780
6F00
7800
7000
6000
6000
6000
6000
6000
6000
6000
6000
6000
0000
7000
6000
6000
C000
ENDCHAR
STARTCHAR Rcaron
ENCODING 344
SWIDTH 622 0
DWIDTH 15 0
BBX 13 22 2 0
BITMAP
71C0
1B00
0E00
0000
0000
FF80
FFC0
C0E0
C060
C060
C060
C060
C0C0
FF80
FF00
C380
C180
C1C0
C0C0
C060
C070
C038
ENDCHAR
STARTCHAR rcaron
ENCODING 345
SWIDTH 413 0
DWIDTH 10 0
BBX 8 18 2 0
BITMAP
C7
6C
38
00
00
CF
DE
F0
E0
C0
C0
C0
C0
C0
C0
C0
C0
C0
ENDCHAR
STARTCHAR Sacute
ENCODING 346
SWIDTH 549 0
DWIDTH 13 0
BBX 11 22 1 0
BITMAP
0380
0700
0600
0800
0000
3FE0
7FC0
6000
E000
E000
6000
7000
3C00
1F80
03C0
00E0
0060
0060
0060
80E0
FFC0
FF80
ENDCHAR
STARTCHAR sacute
ENCODING 347
SWIDTH 479 0
DWIDTH 12 0
BBX 9 18 1 0
BITMAP
0700
0C00
1800
0000
0000
3F80
7F80
C000
C000
E000
7800
1F00
0780
0180
0180
8180
F780
FF00
ENDCHAR
STARTCHAR Scedilla
ENCODING 350
SWIDTH 549 0
DWIDTH 13 0
BBX 11 23 1 -6
BITMAP
3FE0
7FC0
6000
E000
E000
6000
7000
3C00
1F80
03C0
00E0
0060
0060
0060
80E0
FFC0
FF80
0C00
0C00
0600
0300
1E00
1C00
ENDCHAR
STARTCHAR scedilla
ENCODING 351
SWIDTH 479 0
DWIDTH 12 0
BBX 9 19 1 -6
BITMAP
3F80
7F80
C000
C000
E000
7800
1F00
0780
0180
0180
8180
F780
FF00
0800
1C00
0600
0600
3E00
3800
ENDCHAR
STARTCHAR Scaron
ENCODING 352
SWIDTH 549 0
DWIDTH 13 0
BBX 11 22 1 0
BITMAP
31C0
1B00
0F00
0000
0000
3FE0
7FC0
6000
E000
E000
6000
7000
3C00
1F80
03C0
00E0
0060
0060
0060
80E0
FFC0
FF80
ENDCHAR
STARTCHAR scaron
ENCODING 353
SWIDTH 479 0
DWIDTH 12 0
BBX 9 18 1 0
BITMAP
6380
3600
1C00
0000
0000
3F80
7F80
C000
C000
E000
7800
1F00
0780
0180
0180
8180
F780
FF00
ENDCHAR
STARTCHAR Tcaron
ENCODING 356
SWIDTH 556 0
DWIDTH 13 0
BBX 13 22 0 0
BITMAP
18E0
0D80
0700
0000
0000
FFF8
FFF8
0300
0300
0300
0300
0300
0300
0300
0300
0300
0300
0300
0300
0300
0300
0300
ENDCHAR
STARTCHAR tcaron
ENCODING 357
SWIDTH 361 0
DWIDTH 9 0
BBX 11 18 0 0
BITMAP
0060
0060
1040
10C0
3000
7F00
FF00
3000
3000
3000
3000
3000
3000
3000
3000
3800
1D00
1F00
ENDCHAR
STARTCHAR Umacron
ENCODING 362
SWIDTH 731 0
DWIDTH 18 0
BBX 13 20 2 0
BITMAP
1FC0
0000
0000
C018
C018
C018
C018
C018
C018
C018
C018
C018
C018
C018
C018
C018
6018
7030
3FF0
1FC0
ENDCHAR
STARTCHAR umacron
ENCODING 363
SWIDTH 618 0
DWIDTH 15 0
BBX 11 16 2 0
BITMAP
3F80
0000
0000
C060
C060
C060
C060
C060
C060
C060
C060
C060
C0E0
E0E0
7FE0
3E60
ENDCHAR
STARTCHAR Ubreve
ENCODING 364
SWIDTH 731 0
DWIDTH 18 0
BBX 13 22 2 0
BITMAP
1060
18C0
0F80
0000
0000
C018
C018
C018
C018
C018
C018
C018
C018
C018
C018
C018
C018
C018
6018
7030
3FF0
1FC0
ENDCHAR
STARTCHAR ubreve
ENCODING 365
SWIDTH 618 0
DWIDTH 15 0
BBX 11 18 2 0
BITMAP
2080
3180
1F00
0000
0000
C060
C060
C060
C060
C060
C060
C060
C060
C060
C0E0
E0E0
7FE0
3E60
ENDCHAR
STARTCHAR Uring
ENCODING 366
SWIDTH 731 0
DWIDTH 18 0
BBX 13 24 2 0
BITMAP
0200
0F80
0880
0C80
0780
0000
0000
C018
C018
C018
C018
C018
C018
C018
C018
C018
C018
C018
C018
C018
6018
7030
3FF0
1FC0
ENDCHAR
STARTCHAR uring
ENCODING 367
SWIDTH 618 0
DWIDTH 15 0
BBX 11 20 2 0
BITMAP
0400
1F00
1100
1100
1F00
0000
0000
C060
C060
C060
C060
C060
C060
C060
C060
C060
C0E0
E0E0
7FE0
3E60
ENDCHAR
STARTCHAR Uhungarumlaut
ENCODING 368
SWIDTH 731 0
DWIDTH 18 0
BBX 13 22 2 0
BITMAP
0EE0
0CC0
1980
2000
0000
C018
C018
C018
C018
C018
C018
C018
C018
C018
C018
C018
C018
C018
6018
7030
3FF0
1FC0
ENDCHAR
STARTCHAR uhungarumlaut
ENCODING 369
SWIDTH 618 0
DWIDTH 15 0
BBX 11 18 2 0
BITMAP
1DC0
3300
2300
4400
0000
C060
C060
C060
C060
C060
C060
C060
C060
C060
C0E0
E0E0
7FE0
3E60
ENDCHAR
STARTCHAR Uogonek
ENCODING 370
SWIDTH 731 0
DWIDTH 18 0
BBX 13 22 2 -5
BITMAP
C018
C018
C018
C018
C018
C018
C018
C018
C018
C018
C018
C018
C018
6018
7030
3FF0
1FE0
00C0
0080
0180
0180
00E0
ENDCHAR
STARTCHAR uogonek
ENCODING 371
SWIDTH 618 0
DWIDTH 15 0
BBX 11 18 2 -5
BITMAP
C060
C060
C060
C060
C060
C060
C060
C060
C060
C0E0
E0E0
7FE0
3E60
00C0
0180
0180
0180
01E0
ENDCHAR
STARTCHAR Wcircumflex
ENCODING 372
SWIDTH 930 0
DWIDTH 22 0
BBX 22 22 0 0
BITMAP
007800
007C00
00CE00
010000
000000
E0300C
60781C
607818
607818
306C18
30CC38
30CC30
30CC30
198630
198660
198660
198360
0F0360
0F03C0
0F01C0
0E01C0
0601C0
ENDCHAR
STARTCHAR wcircumflex
ENCODING 373
SWIDTH 786 0
DWIDTH 19 0
BBX 19 18 0 0
BITMAP
00E000
01B000
031800
040400
000000
E0E0E0
60E0C0
60E0C0
61B0C0
71B180
31B180
331980
331B80
1B1B00
1E1B00
1E0F00
1E0E00
0C0E00
ENDCHAR
STARTCHAR Ycircumflex
ENCODING 374
SWIDTH 566 0
DWIDTH 14 0
BBX 14 22 0 0
BITMAP
0700
0F80
18C0
0020
0004
E018
6038
7030
3070
3860
18E0
0CC0
0D80
0780
0700
0300
0300
0300
0300
0300
0300
0300
ENDCHAR
STARTCHAR ycircumflex
ENCODING 375
SWIDTH 510 0
DWIDTH 12 0
BBX 12 24 0 -6
BITMAP
0F00
0F80
19C0
2000
0000
C030
6070
6060
7060
30E0
30C0
18C0
1980
1980
0D80
0F00
0700
0700
0600
0600
0C00
1C00
F800
E000
ENDCHAR
STARTCHAR Ydieresis
ENCODING 376
SWIDTH 566 0
DWIDTH 14 0
BBX 14 22 0 0
BITMAP
0840
1CC0
08C0
0000
0004
E018
6038
7030
3070
3860
18E0
0CC0
0D80
0780
0700
0300
0300
0300
0300
0300
0300
0300
ENDCHAR
STARTCHAR Zacute
ENCODING 377
SWIDTH 572 0
DWIDTH 14 0
BBX 12 22 1 0
BITMAP
0380
0700
0600
0800
0000
FFF0
FFF0
00E0
00C0
01C0
0380
0300
0700
0E00
0C00
1C00
3800
3000
7000
E000
FFF0
FFF0
ENDCHAR
STARTCHAR zacute
ENCODING 378
SWIDTH 470 0
DWIDTH 11 0
BBX 9 18 1 0
BITMAP
0700
0C00
1800
0000
0000
FF80
FF80
0380
0300
0600
0E00
0C00
1800
3000
7000
6000
FF80
FF80
ENDCHAR
STARTCHAR Zdotaccent
ENCODING 379
SWIDTH 572 0
DWIDTH 14 0
BBX 12 22 1 0
BITMAP
0400
0600
0600
0000
0000
FFF0
FFF0
00E0
00C0
01C0
0380
0300
0700
0E00
0C00
1C00
3800
3000
7000
E000
FFF0
FFF0
ENDCHAR
STARTCHAR zdotaccent
ENCODING 380
SWIDTH 470 0
DWIDTH 11 0
BBX 9 18 1 0
BITMAP
0800
1C00
0C00
0000
0000
FF80
FF80
0380
0300
0600
0E00
0C00
1800
3000
7000
6000
FF80
FF80
ENDCHAR
STARTCHAR Zcaron
ENCODING 381
SWIDTH 572 0
DWIDTH 14 0
BBX 12 22 1 0
BITMAP
39C0
1F80
0F00
0000
0000
FFF0
FFF0
00E0
00C0
01C0
0380
0300
0700
0E00
0C00
1C00
3800
3000
7000
E000
FFF0
FFF0
ENDCHAR
STARTCHAR zcaron
ENCODING 382
SWIDTH 470 0
DWIDTH 11 0
BBX 9 18 1 0
BITMAP
6380
3600
1C00
0000
0000
FF80
FF80
0380
0300
0600
0E00
0C00
1800
3000
7000
6000
FF80
FF80
ENDCHAR
STARTCHAR uni01CD
ENCODING 461
SWIDTH 639 0
DWIDTH 15 0
BBX 15 22 0 0
BITMAP
0C70
06C0
0380
0000
0000
0380
0380
03C0
06C0
06C0
0E60
0C60
0C30
1830
1830
1FF8
3FF8
301C
700C
600C
6006
C006
ENDCHAR
STARTCHAR uni01CE
ENCODING 462
SWIDTH 561 0
DWIDTH 13 0
BBX 11 18 1 0
BITMAP
31C0
1B00
0E00
0000
0000
1F80
3FC0
20C0
00C0
00E0
07E0
3FE0
60E0
C0E0
C0E0
E1E0
7760
7E60
ENDCHAR
STARTCHAR uni0218
ENCODING 536
SWIDTH 549 0
DWIDTH 13 0
BBX 11 22 1 -5
BITMAP
3FE0
7FC0
6000
E000
E000
6000
7000
3C00
1F80
03C0
00E0
0060
0060
0060
80E0
FFC0
FF80
0000
0600
0C00
0C00
0800
ENDCHAR
STARTCHAR uni0219
ENCODING 537
SWIDTH 479 0
DWIDTH 12 0
BBX 9 18 1 -5
BITMAP
3F80
7F80
C000
C000
E000
7800
1F00
0780
0180
0180
8180
F780
FF00
0000
0C00
0C00
0C00
1800
ENDCHAR
STARTCHAR uni021A
ENCODING 538
SWIDTH 556 0
DWIDTH 13 0
BBX 13 22 0 -5
BITMAP
FFF8
FFF8
0300
0300
0300
0300
0300
0300
0300
0300
0300
0300
0300
0300
0300
0300
0300
0000
0300
0300
0200
0600
ENDCHAR
STARTCHAR uni021B
ENCODING 539
SWIDTH 361 0
DWIDTH 9 0
BBX 8 21 0 -5
BITMAP
10
10
30
7F
FF
30
30
30
30
30
30
30
30
38
1D
1F
00
06
0C
0C
08
ENDCHAR
STARTCHAR uni0237
ENCODING 567
SWIDTH 258 0
DWIDTH 6 0
BBX 5 19 -1 -6
BITMAP
18
18
18
18
18
18
18
18
18
18
18
18
18
18
18
18
18
F0
E0
ENDCHAR
STARTCHAR circumflex
ENCODING 710
SWIDTH 418 0
DWIDTH 10 0
BBX 8 3 1 15
BITMAP
3C
7C
E7
ENDCHAR
STARTCHAR caron
ENCODING 711
SWIDTH 418 0
DWIDTH 10 0
BBX 8 3 1 15
BITMAP
E7
7E
3C
ENDCHAR
STARTCHAR macronmod
ENCODING 713
SWIDTH 377 0
DWIDTH 9 0
BBX 7 1 1 15
BITMAP
FE
ENDCHAR
STARTCHAR breve
ENCODING 728
SWIDTH 391 0
DWIDTH 9 0
BBX 7 3 1 15
BITMAP
82
C6
7C
ENDCHAR
STARTCHAR dotaccent
ENCODING 729
SWIDTH 183 0
DWIDTH 4 0
BBX 2 3 1 15
BITMAP
40
C0
C0
ENDCHAR
STARTCHAR ring
ENCODING 730
SWIDTH 300 0
DWIDTH 7 0
BBX 5 5 1 15
BITMAP
20
F8
88
88
F8
ENDCHAR
STARTCHAR ogonek
ENCODING 731
SWIDTH 245 0
DWIDTH 6 0
BBX 4 5 1 -5
BITMAP
60
C0
C0
C0
F0
ENDCHAR
STARTCHAR tilde
ENCODING 732
SWIDTH 447 0
DWIDTH 11 0
BBX 9 3 1 15
BITMAP
2180
7980
CF00
ENDCHAR
STARTCHAR hungarumlaut
ENCODING 733
SWIDTH 439 0
DWIDTH 11 0
BBX 9 3 1 15
BITMAP
3380
6600
CC00
ENDCHAR
STARTCHAR gravecomb
ENCODING 768
SWIDTH 0 0
DWIDTH 0 0
BBX 5 3 -12 15
BITMAP
E0
70
38
ENDCHAR
STARTCHAR acutecomb
ENCODING 769
SWIDTH 0 0
DWIDTH 0 0
BBX 5 3 -8 15
BITMAP
38
60
C0
ENDCHAR
STARTCHAR uni0302
ENCODING 770
SWIDTH 0 0
DWIDTH 0 0
BBX 8 3 -4 15
BITMAP
3C
3E
E7
ENDCHAR
STARTCHAR tildecomb
ENCODING 771
SWIDTH 0 0
DWIDTH 0 0
BBX 9 3 -12 15
BITMAP
2080
7D80
CF00
ENDCHAR
STARTCHAR uni0304
ENCODING 772
SWIDTH 0 0
DWIDTH 0 0
BBX 8 1 -4 15
BITMAP
FF
ENDCHAR
STARTCHAR uni0306
ENCODING 774
SWIDTH 0 0
DWIDTH 0 0
BBX 8 3 -4 15
BITMAP
C3
46
7E
ENDCHAR
STARTCHAR uni0307
ENCODING 775
SWIDTH 0 0
DWIDTH 0 0
BBX 2 3 -1 15
BITMAP
40
C0
C0
ENDCHAR
STARTCHAR uni0308
ENCODING 776
SWIDTH 0 0
DWIDTH 0 0
BBX 6 3 -3 15
BITMAP
84
CC
CC
ENDCHAR
STARTCHAR uni030A
ENCODING 778
SWIDTH 0 0
DWIDTH 0 0
BBX 6 5 -3 15
BITMAP
30
78
CC
CC
78
ENDCHAR
STARTCHAR uni030B
ENCODING 779
SWIDTH 0 0
DWIDTH 0 0
BBX 9 3 -3 15
BITMAP
3380
6600
CC00
ENDCHAR
STARTCHAR uni030C
ENCODING 780
SWIDTH 0 0
DWIDTH 0 0
BBX 8 3 -4 15
BITMAP
E7
7E
3C
ENDCHAR
STARTCHAR uni0312
ENCODING 786
SWIDTH 0 0
DWIDTH 0 0
BBX 4 6 -2 11
BITMAP
30
60
60
60
E0
E0
ENDCHAR
STARTCHAR dotbelowcomb
ENCODING 803
SWIDTH 0 0
DWIDTH 0 0
BBX 2 2 -8 -4
BITMAP
C0
C0
ENDCHAR
STARTCHAR uni0324
ENCODING 804
SWIDTH 0 0
DWIDTH 0 0
BBX 6 3 -3 15
BITMAP
84
CC
CC
ENDCHAR
STARTCHAR uni0326
ENCODING 806
SWIDTH 0 0
DWIDTH 0 0
BBX 4 4 -2 -5
BITMAP
70
60
60
C0
ENDCHAR
STARTCHAR uni0327
ENCODING 807
SWIDTH 0 0
DWIDTH 0 0
BBX 4 6 -2 -6
BITMAP
60
60
30
10
F0
E0
ENDCHAR
STARTCHAR uni0328
ENCODING 808
SWIDTH 0 0
DWIDTH 0 0
BBX 4 5 -2 -5
BITMAP
60
C0
C0
C0
F0
ENDCHAR
STARTCHAR uni0330
ENCODING 816
SWIDTH 0 0
DWIDTH 0 0
BBX 8 3 -4 -4
BITMAP
61
FB
9F
ENDCHAR
STARTCHAR uni0331
ENCODING 817
SWIDTH 0 0
DWIDTH 0 0
BBX 8 2 -4 -4
BITMAP
FF
FF
ENDCHAR
STARTCHAR uni13A0
ENCODING 5024
SWIDTH 804 0
DWIDTH 19 0
BBX 15 17 2 0
BITMAP
FFE0
30F0
3018
300C
300E
3006
3006
3006
3006
3006
3006
3006
300C
300C
3038
33F0
FFC0
ENDCHAR
STARTCHAR uni13A1
ENCODING 5025
SWIDTH 732 0
DWIDTH 18 0
BBX 14 17 2 0
BITMAP
FFE0
30F0
3038
3018
3018
3018
3038
3070
3FC0
30E0
3060
3030
3030
3030
3030
3018
FC1C
ENDCHAR
STARTCHAR uni13A2
ENCODING 5026
SWIDTH 698 0
DWIDTH 17 0
BBX 15 17 1 0
BITMAP
FFFE
C306
8306
8306
0300
0300
0300
0300
0300
0300
0300
0300
0300
0300
0300
0300
0FE0
ENDCHAR
STARTCHAR uni13A3
ENCODING 5027
SWIDTH 877 0
DWIDTH 21 0
BBX 19 17 1 0
BITMAP
01F800
006000
006000
006000
007C00
00CF00
0F8380
3F81C0
6180C0
60C0C0
C0C060
C0C060
C0C0C0
60C0C0
618180
3F8780
1E0E00
ENDCHAR
STARTCHAR uni13A4
ENCODING 5028
SWIDTH 1103 0
DWIDTH 26 0
BBX 24 17 1 0
BITMAP
0FF03E
1C7866
301C63
700C63
600663
600603
600603
E00703
E00786
6007FE
60067C
600600
600600
700C00
381C00
1E7800
0FE000
ENDCHAR
STARTCHAR uni13A5
ENCODING 5029
SWIDTH 339 0
DWIDTH 8 0
BBX 6 17 1 0
BITMAP
30
30
00
00
00
00
30
30
30
30
30
30
30
30
30
30
FC
ENDCHAR
STARTCHAR uni13A6
ENCODING 5030
SWIDTH 706 0
DWIDTH 17 0
BBX 13 17 2 0
BITMAP
1FC0
3860
6070
6070
6000
3000
3800
1E00
FFF8
01C0
0060
0060
2030
6030
6060
71E0
3F80
ENDCHAR
STARTCHAR uni13A7
ENCODING 5031
SWIDTH 820 0
DWIDTH 20 0
BBX 17 17 1 0
BITMAP
0FF800
3C3C00
100E00
000300
040380
3F0180
718180
618180
618180
C18180
C18180
638380
670300
7E0700
380E00
1E7C00
0FF000
ENDCHAR
STARTCHAR uni13A8
ENCODING 5032
SWIDTH 716 0
DWIDTH 17 0
BBX 15 17 2 0
BITMAP
FC00
3000
3000
3000
3000
3100
3386
3F84
38CC
30F8
3030
3000
3000
3000
3000
3000
FC00
ENDCHAR
STARTCHAR uni13A9
ENCODING 5033
SWIDTH 752 0
DWIDTH 18 0
BBX 17 17 1 0
BITMAP
FC1F80
700600
300600
380C00
180C00
1C1800
0C1800
063000
063000
036000
036000
01C000
01C000
018000
330000
370000
3E0000
ENDCHAR
STARTCHAR uni13AA
ENCODING 5034
SWIDTH 748 0
DWIDTH 18 0
BBX 18 17 0 0
BITMAP
00E000
01E000
01A000
013000
033000
033000
061800
061800
061800
0C0C00
0FFC00
0FFC00
180600
180600
100600
300300
FC1FC0
ENDCHAR
STARTCHAR uni13AB
ENCODING 5035
SWIDTH 592 0
DWIDTH 14 0
BBX 12 17 1 0
BITMAP
03F0
00C0
00C0
00C0
00C0
00C0
00C0
00C0
00C0
00C0
00C0
00C0
C0C0
C1C0
C180
E780
7E00
ENDCHAR
STARTCHAR uni13AC
ENCODING 5036
SWIDTH 705 0
DWIDTH 17 0
BBX 13 17 2 0
BITMAP
FFF8
3008
3008
3008
3000
3000
3080
3F80
3F80
3080
3080
3000
3000
3008
3008
3008
FFF8
ENDCHAR
STARTCHAR uni13AD
ENCODING 5037
SWIDTH 1000 0
DWIDTH 24 0
BBX 22 17 1 0
BITMAP
007F00
000C00
000C00
000C00
000C00
7E0C7C
630C7C
C33C30
C1EC20
C18C60
C10CC0
C30880
770980
3C0B00
000B00
000E00
000C00
ENDCHAR
STARTCHAR uni13AE
ENCODING 5038
SWIDTH 627 0
DWIDTH 15 0
BBX 12 19 2 0
BITMAP
1F00
FFC0
40E0
0070
0030
0030
FC30
3030
3060
30E0
3F80
3800
3000
3000
3000
3000
3000
3000
FC00
ENDCHAR
STARTCHAR uni13AF
ENCODING 5039
SWIDTH 770 0
DWIDTH 18 0
BBX 17 17 0 0
BITMAP
00FC00
018600
030300
030300
030300
020180
060180
060180
07FF80
07FF80
060180
060180
060300
0C0300
4C1300
F81E00
701C00
ENDCHAR
STARTCHAR uni13B0
ENCODING 5040
SWIDTH 610 0
DWIDTH 15 0
BBX 11 17 2 0
BITMAP
FC00
3000
3000
3000
3000
3020
3020
3FE0
3FE0
3020
3020
3000
3000
3000
3000
3000
FC00
ENDCHAR
STARTCHAR uni13B1
ENCODING 5041
SWIDTH 641 0
DWIDTH 15 0
BBX 13 17 2 0
BITMAP
FFF8
3018
3018
3018
3000
3000
3000
3000
3000
3000
3000
3000
3000
3000
3000
3000
FC00
ENDCHAR
STARTCHAR uni13B2
ENCODING 5042
SWIDTH 910 0
DWIDTH 22 0
BBX 20 17 1 0
BITMAP
03F000
073800
061800
060C00
0C0C00
0C0C00
0C0C00
061800
061800
061800
033000
C331F0
C1E060
C1E040
C1E0C0
77F980
3E1F00
ENDCHAR
STARTCHAR uni13B3
ENCODING 5043
SWIDTH 1077 0
DWIDTH 26 0
BBX 26 17 0 0
BITMAP
FC3F0FC0
380C0300
180C0600
181C0600
181E0600
1C1E0C00
0C160C00
0C320C00
0C331800
06231800
06631800
06613000
0641B000
0341B000
03C1A000
03C0E000
0180E000
ENDCHAR
STARTCHAR uni13B4
ENCODING 5044
SWIDTH 783 0
DWIDTH 19 0
BBX 17 17 1 0
BITMAP
003F00
006380
006180
00C180
00C380
00C000
1FC000
73C000
60C000
C0C000
C0C000
C0C000
C0C000
C0C000
60C000
738000
3F0000
ENDCHAR
STARTCHAR uni13B5
ENCODING 5045
SWIDTH 679 0
DWIDTH 16 0
BBX 14 17 1 0
BITMAP
07F0
0E38
180C
180C
380C
300C
300C
304C
3078
3070
3000
3000
3000
3000
3000
3000
FC00
ENDCHAR
STARTCHAR uni13B6
ENCODING 5046
SWIDTH 705 0
DWIDTH 17 0
BBX 15 17 1 0
BITMAP
07F8
1E1C
380C
3004
6000
6000
60C0
E0C0
E0F8
E0DC
60C6
60C6
6006
7006
380C
1E78
0FF0
ENDCHAR
STARTCHAR uni13B7
ENCODING 5047
SWIDTH 1002 0
DWIDTH 24 0
BBX 20 17 2 0
BITMAP
F801F0
2C03C0
2C03C0
2C02C0
2606C0
2606C0
2604C0
230CC0
230CC0
2308C0
2198C0
2198C0
2190C0
20F0C0
20F0C0
20E0C0
F861F0
ENDCHAR
STARTCHAR uni13B8
ENCODING 5048
SWIDTH 811 0
DWIDTH 19 0
BBX 17 17 1 0
BITMAP
03F800
061C00
0C0C00
0E0600
000600
000600
C00600
C00600
FC0600
FC0E00
C7FE00
C3E600
000600
000600
000600
000600
001F80
ENDCHAR
STARTCHAR uni13B9
ENCODING 5049
SWIDTH 988 0
DWIDTH 24 0
BBX 22 17 1 0
BITMAP
07E060
0181F8
01870C
018E0C
01F80C
01F01C
030038
3F0020
67C000
CCC000
8C6000
186000
186000
186000
186000
0CC000
078000
ENDCHAR
STARTCHAR uni13BA
ENCODING 5050
SWIDTH 1054 0
DWIDTH 25 0
BBX 22 17 1 0
BITMAP
0FF00C
1C380C
380C0C
70060C
60060C
60070C
60030C
E003FC
E003FC
60030C
60030C
60070C
60060C
30060C
380C0C
1E780C
07F00C
ENDCHAR
STARTCHAR uni13BB
ENCODING 5051
SWIDTH 849 0
DWIDTH 20 0
BBX 17 17 2 0
BITMAP
FC1F80
300600
300600
300600
300600
300600
300600
3FFE00
3FFE00
300600
300600
300600
300600
300600
300600
300600
FC1F80
ENDCHAR
STARTCHAR uni13BC
ENCODING 5052
SWIDTH 809 0
DWIDTH 19 0
BBX 18 17 0 0
BITMAP
01F800
002000
002000
002000
007E00
00CF80
E38180
7F00C0
1C00C0
0000C0
0000C0
0000C0
0600C0
0300C0
030180
01E700
00FE00
ENDCHAR
STARTCHAR uni13BD
ENCODING 5053
SWIDTH 808 0
DWIDTH 19 0
BBX 19 17 0 0
BITMAP
3807E0
180180
1C0180
0C0300
0E0300
060600
030600
038C00
018C00
01D800
00D800
007000
F87000
306000
30C000
19C000
1F8000
ENDCHAR
STARTCHAR uni13BE
ENCODING 5054
SWIDTH 773 0
DWIDTH 19 0
BBX 16 17 1 0
BITMAP
0FF0
1C3C
380C
7006
6006
6003
6003
FFFF
FFFF
6003
6003
6003
6006
3006
380C
1E78
07F0
ENDCHAR
STARTCHAR uni13BF
ENCODING 5055
SWIDTH 776 0
DWIDTH 19 0
BBX 17 19 1 -2
BITMAP
180000
180000
180000
FF8000
FF8000
180000
180000
180000
180000
180000
187F80
180C00
180C00
180C00
1C1C00
0E7C00
07EC00
000C00
000C00
ENDCHAR
STARTCHAR uni13C0
ENCODING 5056
SWIDTH 778 0
DWIDTH 19 0
BBX 16 17 1 0
BITMAP
07F8
1E1C
3804
3004
6004
6000
6000
E000
E000
E000
601F
6006
6006
700E
381E
1EF6
0FE6
ENDCHAR
STARTCHAR uni13C1
ENCODING 5057
SWIDTH 834 0
DWIDTH 20 0
BBX 19 17 0 0
BITMAP
00FE00
01C700
038300
030300
030180
030180
060180
060180
060180
060180
060180
060180
060180
0C0180
4C0180
F80180
7007E0
ENDCHAR
STARTCHAR uni13C2
ENCODING 5058
SWIDTH 773 0
DWIDTH 19 0
BBX 16 17 2 0
BITMAP
FC00
3000
3000
3000
3000
31C0
37F0
3C38
3818
301C
300C
300C
300C
300C
300C
300C
FC3F
ENDCHAR
STARTCHAR uni13C3
ENCODING 5059
SWIDTH 635 0
DWIDTH 15 0
BBX 13 17 1 0
BITMAP
7FF8
4018
4030
4060
00E0
00C0
0180
0300
0700
0600
0C00
1800
3800
3018
6018
C018
FFF8
ENDCHAR
STARTCHAR uni13C4
ENCODING 5060
SWIDTH 726 0
DWIDTH 17 0
BBX 15 17 1 0
BITMAP
0FE0
3870
3030
6018
F818
0018
0018
F818
F818
6038
3078
3FF8
0F98
0018
0018
0018
007E
ENDCHAR
STARTCHAR uni13C5
ENCODING 5061
SWIDTH 1127 0
DWIDTH 27 0
BBX 26 17 1 0
BITMAP
0FF00000
1C780000
301C0000
700C0000
60060000
60062000
600660C0
E007F080
E0073180
60061F00
60060C00
60060000
60060000
700C0000
38180000
1E780000
0FE00000
ENDCHAR
STARTCHAR uni13C6
ENCODING 5062
SWIDTH 773 0
DWIDTH 19 0
BBX 15 17 2 0
BITMAP
FFFC
830C
8304
8304
0300
0300
0300
0300
0300
0300
0300
0300
0300
C306
C306
C306
FFFE
ENDCHAR
STARTCHAR uni13C7
ENCODING 5063
SWIDTH 1035 0
DWIDTH 25 0
BBX 22 17 1 0
BITMAP
001FC0
0078F0
006038
000018
00001C
00000C
00000C
00000C
60300C
C0300C
C0300C
C0300C
C0700C
C0701C
60D818
79CEF0
3F07E0
ENDCHAR
STARTCHAR uni13C8
ENCODING 5064
SWIDTH 868 0
DWIDTH 21 0
BBX 19 17 1 0
BITMAP
3F1F80
73B8C0
60E060
C0E060
C1B060
C330E0
0318C0
061900
060C00
060C00
060C00
040C00
040C00
060C00
061800
073800
03F000
ENDCHAR
STARTCHAR uni13C9
ENCODING 5065
SWIDTH 1307 0
DWIDTH 31 0
BBX 30 17 1 0
BITMAP
00C031F0
00C03FF8
00C06E0C
00C0600C
0060620C
0060C318
7860C1F0
FC60C000
C8618000
C0F18000
C1B18000
C3B30000
7E130000
101B0000
001E0000
001E0000
000E0000
ENDCHAR
STARTCHAR uni13CA
ENCODING 5066
SWIDTH 1068 0
DWIDTH 26 0
BBX 23 17 1 0
BITMAP
001FE0
003878
006018
00000C
00000E
000006
000006
000E06
601F06
C03206
C03006
C03006
C0300E
C0700C
60D818
79DE78
3F07E0
ENDCHAR
STARTCHAR uni13CB
ENCODING 5067
SWIDTH 665 0
DWIDTH 16 0
BBX 12 17 2 0
BITMAP
3FE0
7860
E000
C000
C000
6000
7800
0FC0
7800
E000
C000
C0F0
C030
C030
E030
78F0
3FC0
ENDCHAR
STARTCHAR uni13CC
ENCODING 5068
SWIDTH 819 0
DWIDTH 20 0
BBX 17 17 1 0
BITMAP
FC1F80
300600
300600
300600
300600
300600
300600
3FFE00
300600
300600
300600
300600
300600
380600
180E00
0F3C00
07F800
ENDCHAR
STARTCHAR uni13CD
ENCODING 5069
SWIDTH 1047 0
DWIDTH 25 0
BBX 23 17 1 0
BITMAP
00FF80
03E3E0
070070
040018
00001C
00000C
001F8C
3F1F8E
718606
60C606
C0DE06
C0F60E
C0C60C
C0C60C
60C30C
738318
3F01F0
ENDCHAR
STARTCHAR uni13CE
ENCODING 5070
SWIDTH 637 0
DWIDTH 15 0
BBX 14 17 0 0
BITMAP
00E0
01E0
01E0
0360
0660
0660
0C60
1860
3060
3060
6060
FFFC
FFFC
0060
0060
0060
01F8
ENDCHAR
STARTCHAR uni13CF
ENCODING 5071
SWIDTH 672 0
DWIDTH 16 0
BBX 13 17 2 0
BITMAP
FC00
3000
3000
3000
3000
3000
3000
3FC0
3FF0
3030
3018
3018
3018
3018
3030
33F0
FFC0
ENDCHAR
STARTCHAR uni13D0
ENCODING 5072
SWIDTH 684 0
DWIDTH 16 0
BBX 15 17 1 0
BITMAP
0FC0
0300
0300
0300
0300
0300
C37C
C3C6
8306
CF0E
7F04
0300
0300
0300
0300
0300
0FC0
ENDCHAR
STARTCHAR uni13D1
ENCODING 5073
SWIDTH 877 0
DWIDTH 21 0
BBX 19 17 1 0
BITMAP
7C0380
C60FC0
C63860
C67060
C6E060
7F8060
3E01C0
060180
0C0000
0C0000
0FC000
0C6000
0C2000
0C3000
0C2000
0E6000
07C000
ENDCHAR
STARTCHAR uni13D2
ENCODING 5074
SWIDTH 747 0
DWIDTH 18 0
BBX 15 17 2 0
BITMAP
FFE0
30F8
3018
301C
300C
300C
301C
3398
31F0
30C0
30C0
3060
3060
3030
3030
3038
FC7E
ENDCHAR
STARTCHAR uni13D3
ENCODING 5075
SWIDTH 630 0
DWIDTH 15 0
BBX 13 17 1 0
BITMAP
FC00
3000
3000
3000
3000
3000
3000
3060
30F0
3198
3198
3198
3018
1818
1830
1E70
07E0
ENDCHAR
STARTCHAR uni13D4
ENCODING 5076
SWIDTH 995 0
DWIDTH 24 0
BBX 22 17 1 0
BITMAP
C1860C
C0C61C
60CC18
60CC18
606830
307830
307830
303060
183060
1870C0
1878C0
0C58C0
0CD980
0CCD80
078D00
078F00
070700
ENDCHAR
STARTCHAR uni13D5
ENCODING 5077
SWIDTH 716 0
DWIDTH 17 0
BBX 14 17 2 0
BITMAP
3F80
70C0
6060
C07C
C07C
E000
7000
3C00
1F00
03C0
00E0
0060
007C
C060
C060
E3C0
7F80
ENDCHAR
STARTCHAR uni13D6
ENCODING 5078
SWIDTH 789 0
DWIDTH 19 0
BBX 16 17 1 0
BITMAP
FFFE
C300
8300
8300
0300
0300
0300
037C
03FE
0383
0383
0303
0303
0303
0183
01CE
00FC
ENDCHAR
STARTCHAR uni13D7
ENCODING 5079
SWIDTH 715 0
DWIDTH 17 0
BBX 14 17 1 0
BITMAP
00FC
0038
0038
0038
0038
0038
0038
0038
0038
0078
0058
00F8
00B8
01B8
C338
CE38
FC3C
ENDCHAR
STARTCHAR uni13D8
ENCODING 5080
SWIDTH 750 0
DWIDTH 18 0
BBX 16 17 1 0
BITMAP
1FFF
1818
1818
1818
0018
0018
0018
0018
0038
0038
0078
0078
00D8
0198
C318
CE18
FC18
ENDCHAR
STARTCHAR uni13D9
ENCODING 5081
SWIDTH 748 0
DWIDTH 18 0
BBX 18 17 0 0
BITMAP
FE0FC0
300300
180600
180600
180600
0C0C00
0C0C00
0C0C00
061800
061800
061000
033000
033000
032000
01E000
01E000
01C000
ENDCHAR
STARTCHAR uni13DA
ENCODING 5082
SWIDTH 615 0
DWIDTH 15 0
BBX 11 17 2 0
BITMAP
3FC0
70C0
6040
C040
C000
E000
7000
3C00
0F00
03C0
00C0
0060
0060
C060
C0C0
E3C0
7F00
ENDCHAR
STARTCHAR uni13DB
ENCODING 5083
SWIDTH 1062 0
DWIDTH 25 0
BBX 24 17 1 0
BITMAP
07F8FC
1EDDC6
38C502
30C703
60C603
60C626
60C03E
60C008
E0C000
E0C000
E0C000
60C000
618000
618000
618000
3B0000
1F0000
ENDCHAR
STARTCHAR uni13DC
ENCODING 5084
SWIDTH 813 0
DWIDTH 20 0
BBX 18 17 1 0
BITMAP
03E000
063000
061800
061800
061000
033000
01E000
03F000
0E3C00
380E00
7C0F00
461180
C23080
C230C0
C23080
E63980
7C1F00
ENDCHAR
STARTCHAR uni13DD
ENCODING 5085
SWIDTH 689 0
DWIDTH 17 0
BBX 14 17 1 0
BITMAP
07F0
0E38
180C
181C
3018
3000
3000
3000
3000
3000
3000
3000
300C
300C
300C
300C
FFFC
ENDCHAR
STARTCHAR uni13DE
ENCODING 5086
SWIDTH 651 0
DWIDTH 16 0
BBX 13 17 2 0
BITMAP
FC00
3000
3000
3000
3000
3000
3000
3000
3000
3000
3000
3000
3018
3018
3018
3018
FFF8
ENDCHAR
STARTCHAR uni13DF
ENCODING 5087
SWIDTH 700 0
DWIDTH 17 0
BBX 14 17 1 0
BITMAP
07F0
1E3C
380C
300C
600C
6000
6000
E000
E000
E000
6000
6000
600C
700C
381C
1E78
0FF0
ENDCHAR
STARTCHAR uni13E0
ENCODING 5088
SWIDTH 873 0
DWIDTH 21 0
BBX 19 17 1 0
BITMAP
0007E0
3C0180
660180
C30180
C30180
C30180
C30180
E30180
3FFF80
030180
030180
030180
030380
030300
018300
01CE00
00FC00
ENDCHAR
STARTCHAR uni13E1
ENCODING 5089
SWIDTH 899 0
DWIDTH 22 0
BBX 20 17 0 0
BITMAP
0FC7E0
18EE70
303830
303810
306C10
FC6E10
00C600
00C600
018300
018300
018300
018300
018300
018300
018300
00CE00
007C00
ENDCHAR
STARTCHAR uni13E2
ENCODING 5090
SWIDTH 672 0
DWIDTH 16 0
BBX 13 17 2 0
BITMAP
FFC0
31F0
3038
3018
3018
3018
3018
3030
31F0
3FC0
3000
3000
3000
3000
3000
3000
FC00
ENDCHAR
STARTCHAR uni13E3
ENCODING 5091
SWIDTH 737 0
DWIDTH 18 0
BBX 16 17 1 0
BITMAP
07F0
1E78
380C
300C
603F
6000
6000
E000
E000
E000
600C
601C
600E
7004
380C
1FF8
0FF0
ENDCHAR
STARTCHAR uni13E4
ENCODING 5092
SWIDTH 807 0
DWIDTH 19 0
BBX 18 17 1 0
BITMAP
FFE1C0
C30180
830300
830300
030600
030600
030C00
030C00
031800
031800
033000
033000
036000
036000
03C000
038000
038000
ENDCHAR
STARTCHAR uni13E5
ENCODING 5093
SWIDTH 907 0
DWIDTH 22 0
BBX 19 17 2 0
BITMAP
FC0000
300000
300000
300000
300000
300000
31FF80
37DFC0
3C1860
381860
301860
301800
301800
301800
301800
301800
FC7E00
ENDCHAR
STARTCHAR uni13E6
ENCODING 5094
SWIDTH 777 0
DWIDTH 19 0
BBX 16 17 2 0
BITMAP
FC7E
3018
3030
3060
30E0
30C0
3180
3380
3780
3DC0
38E0
3060
3070
3038
3018
300C
FC3F
ENDCHAR
STARTCHAR uni13E7
ENCODING 5095
SWIDTH 589 0
DWIDTH 14 0
BBX 12 17 1 0
BITMAP
03F0
00C0
00C0
00C0
00C0
00C0
00C0
3EC0
7FC0
C1C0
C0C0
C0C0
C0C0
C080
C180
7380
3E00
ENDCHAR
STARTCHAR uni13E8
ENCODING 5096
SWIDTH 828 0
DWIDTH 20 0
BBX 18 17 1 0
BITMAP
0FE240
1C3640
381FC0
300D80
600080
600000
600000
E00000
E00000
E00000
600000
600000
600880
700D80
381FC0
1E7640
0FE200
ENDCHAR
STARTCHAR uni13E9
ENCODING 5097
SWIDTH 888 0
DWIDTH 21 0
BBX 20 17 1 0
BITMAP
07F800
1E1C00
380400
300E00
600C00
600000
600000
600000
E00000
E00000
603F00
600C00
600C30
700C30
381E30
1E7760
0FE3C0
ENDCHAR
STARTCHAR uni13EA
ENCODING 5098
SWIDTH 1078 0
DWIDTH 26 0
BBX 23 17 1 0
BITMAP
03F07C
073066
0618C6
0618C2
0618C2
0618C2
0618C2
0618C6
0618C6
063066
033066
C3303C
C1E01C
C1C018
C1E030
77F9E0
3F1FC0
ENDCHAR
STARTCHAR uni13EB
ENCODING 5099
SWIDTH 775 0
DWIDTH 19 0
BBX 16 17 1 0
BITMAP
0FF0
1E3C
380E
3006
6007
7F83
7F83
E183
E183
6183
60FF
6003
6006
3006
380C
1E78
07F0
ENDCHAR
STARTCHAR uni13EC
ENCODING 5100
SWIDTH 1062 0
DWIDTH 25 0
BBX 22 17 2 0
BITMAP
3E01F0
6307F8
C18618
C1840C
C1840C
C1860C
C1870C
C1810C
C1800C
C3000C
C30018
660018
7C0030
380070
1C01E0
0FFF80
03FE00
ENDCHAR
STARTCHAR uni13ED
ENCODING 5101
SWIDTH 632 0
DWIDTH 15 0
BBX 13 17 1 0
BITMAP
0FC0
1C60
3030
3030
3030
3018
3018
3818
1C18
0F18
03F0
C0F0
C030
4060
6060
71C0
1F80
ENDCHAR
STARTCHAR uni13EE
ENCODING 5102
SWIDTH 634 0
DWIDTH 15 0
BBX 12 17 2 0
BITMAP
1FC0
3860
3060
6060
4000
C000
C200
DFC0
F0E0
E060
C060
C030
C030
C060
6060
79C0
1F80
ENDCHAR
STARTCHAR uni13EF
ENCODING 5103
SWIDTH 1074 0
DWIDTH 26 0
BBX 23 17 1 0
BITMAP
007FC0
01E0F0
008038
00001C
00000C
000006
000006
01C606
63EF86
C02806
C03806
C01006
C03006
E0380C
606C1C
7BCE78
1F87E0
ENDCHAR
STARTCHAR uni13F0
ENCODING 5104
SWIDTH 774 0
DWIDTH 19 0
BBX 16 23 1 -6
BITMAP
00FE
0187
0303
0303
0603
0607
060E
0618
0618
061E
C607
C603
C603
6603
3603
1F1E
07FC
0600
0600
0600
0600
0600
0600
ENDCHAR
STARTCHAR uni13F1
ENCODING 5105
SWIDTH 823 0
DWIDTH 20 0
BBX 18 17 1 0
BITMAP
03F000
00C000
00C000
00C000
00F800
01BE00
038700
C70180
FC0180
3800C0
3060C0
30C0C0
3080C0
718180
E0C180
00E700
007E00
ENDCHAR
STARTCHAR uni13F2
ENCODING 5106
SWIDTH 769 0
DWIDTH 18 0
BBX 16 17 1 0
BITMAP
07F8
0E1C
180C
181C
1808
3000
3000
33F0
3638
381C
380C
300C
300C
300C
300C
300C
FC3F
ENDCHAR
STARTCHAR uni13F3
ENCODING 5107
SWIDTH 817 0
DWIDTH 20 0
BBX 18 17 1 0
BITMAP
0FE240
1C3640
381FC0
300D80
600080
600000
600000
E00000
E00000
E00000
601F80
600600
600600
700E00
381E00
1EF600
0FE600
ENDCHAR
STARTCHAR uni13F4
ENCODING 5108
SWIDTH 732 0
DWIDTH 18 0
BBX 14 17 2 0
BITMAP
FFE0
30F8
3018
3018
3018
3018
3018
3FE0
3FF0
3018
300C
300C
300C
300C
3018
31F8
FFE0
ENDCHAR
STARTCHAR uni13F5
ENCODING 5109
SWIDTH 778 0
DWIDTH 19 0
BBX 16 17 1 0
BITMAP
003C
01F8
07C0
0E00
1C00
3800
7000
6000
6000
6000
E01F
6006
6006
6006
3006
3E3E
0FF8
ENDCHAR
STARTCHAR uni13F8
ENCODING 5112
SWIDTH 624 0
DWIDTH 15 0
BBX 13 18 1 -5
BITMAP
03E0
0770
0C18
0C18
0C30
0C60
0CC0
8C70
CC18
CC18
6C18
7C70
1FE0
0C00
0C00
0C00
0C00
0C00
ENDCHAR
STARTCHAR uni13F9
ENCODING 5113
SWIDTH 665 0
DWIDTH 16 0
BBX 14 13 1 0
BITMAP
07C0
0100
0100
03C0
02F0
0E18
DC0C
708C
238C
230C
E30C
C318
01F0
ENDCHAR
STARTCHAR uni13FA
ENCODING 5114
SWIDTH 612 0
DWIDTH 15 0
BBX 13 13 1 0
BITMAP
0FC0
18E0
3060
3060
2000
2780
2FC0
3060
3060
2060
2060
2060
F8F8
ENDCHAR
STARTCHAR uni13FB
ENCODING 5115
SWIDTH 653 0
DWIDTH 16 0
BBX 14 13 1 0
BITMAP
0F94
39F4
707C
6048
C000
C000
C000
C0F8
C060
6060
6060
39E0
1F60
ENDCHAR
STARTCHAR uni13FC
ENCODING 5116
SWIDTH 582 0
DWIDTH 14 0
BBX 12 13 1 0
BITMAP
FF80
3FE0
3060
3060
3060
30C0
3FC0
3060
3030
3030
3070
30E0
FF80
ENDCHAR
STARTCHAR uni13FD
ENCODING 5117
SWIDTH 610 0
DWIDTH 15 0
BBX 13 13 1 0
BITMAP
00E0
07E0
1E00
3800
7000
6000
C000
C0F8
C060
C060
6060
78E0
1FE0
ENDCHAR
STARTCHAR Wgrave
ENCODING 7808
SWIDTH 930 0
DWIDTH 22 0
BBX 22 22 0 0
BITMAP
00E000
007000
003000
000800
000000
E0300C
60781C
607818
607818
306C18
30CC38
30CC30
30CC30
198630
198660
198660
198360
0F0360
0F03C0
0F01C0
0E01C0
0601C0
ENDCHAR
STARTCHAR wgrave
ENCODING 7809
SWIDTH 786 0
DWIDTH 19 0
BBX 19 18 0 0
BITMAP
038000
00C000
006000
000000
000000
E0E0E0
60E0C0
60E0C0
61B0C0
71B180
31B180
331980
331B80
1B1B00
1E1B00
1E0F00
1E0E00
0C0E00
ENDCHAR
STARTCHAR Wacute
ENCODING 7810
SWIDTH 930 0
DWIDTH 22 0
BBX 22 22 0 0
BITMAP
001C00
001800
003000
004000
000000
E0300C
60781C
607818
607818
306C18
30CC38
30CC30
30CC30
198630
198660
198660
198360
0F0360
0F03C0
0F01C0
0E01C0
0601C0
ENDCHAR
STARTCHAR wacute
ENCODING 7811
SWIDTH 786 0
DWIDTH 19 0
BBX 19 18 0 0
BITMAP
007800
006000
00C000
000000
000000
E0E0E0
60E0C0
60E0C0
61B0C0
71B180
31B180
331980
331B80
1B1B00
1E1B00
1E0F00
1E0E00
0C0E00
ENDCHAR
STARTCHAR Wdieresis
ENCODING 7812
SWIDTH 930 0
DWIDTH 22 0
BBX 22 22 0 0
BITMAP
008400
00CE00
00C400
000000
000000
E0300C
60781C
607818
607818
306C18
30CC38
30CC30
30CC30
198630
198660
198660
198360
0F0360
0F03C0
0F01C0
0E01C0
0601C0
ENDCHAR
STARTCHAR wdieresis
ENCODING 7813
SWIDTH 786 0
DWIDTH 19 0
BBX 19 18 0 0
BITMAP
011000
031800
031800
000000
000000
E0E0E0
60E0C0
60E0C0
61B0C0
71B180
31B180
331980
331B80
1B1B00
1E1B00
1E0F00
1E0E00
0C0E00
ENDCHAR
STARTCHAR uni1E9E
ENCODING 7838
SWIDTH 709 0
DWIDTH 17 0
BBX 14 17 2 0
BITMAP
1FC0
3FE0
7070
6030
C060
C0E0
C1C0
C3E0
C3F8
C01C
C00C
C00C
C00C
C00C
D01C
CFF8
CFF0
ENDCHAR
STARTCHAR Ygrave
ENCODING 7922
SWIDTH 566 0
DWIDTH 14 0
BBX 14 22 0 0
BITMAP
0E00
0600
0300
0000
0004
E018
6038
7030
3070
3860
18E0
0CC0
0D80
0780
0700
0300
0300
0300
0300
0300
0300
0300
ENDCHAR
STARTCHAR ygrave
ENCODING 7923
SWIDTH 510 0
DWIDTH 12 0
BBX 12 24 0 -6
BITMAP
1C00
0E00
0600
0100
0000
C030
6070
6060
7060
30E0
30C0
18C0
1980
1980
0D80
0F00
0700
0700
0600
0600
0C00
1C00
F800
E000
ENDCHAR
STARTCHAR endash
ENCODING 8211
SWIDTH 500 0
DWIDTH 12 0
BBX 10 2 1 5
BITMAP
FFC0
FFC0
ENDCHAR
STARTCHAR emdash
ENCODING 8212
SWIDTH 1000 0
DWIDTH 24 0
BBX 22 2 1 5
BITMAP
FFFFFC
FFFFFC
ENDCHAR
STARTCHAR quoteleft
ENCODING 8216
SWIDTH 175 0
DWIDTH 4 0
BBX 4 6 0 11
BITMAP
30
30
60
60
60
E0
ENDCHAR
STARTCHAR quoteright
ENCODING 8217
SWIDTH 175 0
DWIDTH 4 0
BBX 4 6 0 11
BITMAP
70
70
60
60
40
C0
ENDCHAR
STARTCHAR quotesinglbase
ENCODING 8218
SWIDTH 250 0
DWIDTH 6 0
BBX 3 6 1 -3
BITMAP
60
60
E0
C0
C0
80
ENDCHAR
STARTCHAR quotedblleft
ENCODING 8220
SWIDTH 359 0
DWIDTH 9 0
BBX 8 6 0 11
BITMAP
33
33
63
67
66
E6
ENDCHAR
STARTCHAR quotedblright
ENCODING 8221
SWIDTH 359 0
DWIDTH 9 0
BBX 8 6 0 11
BITMAP
73
63
67
66
46
C4
ENDCHAR
STARTCHAR quotedblbase
ENCODING 8222
SWIDTH 416 0
DWIDTH 10 0
BBX 8 6 1 -3
BITMAP
67
66
E6
C6
CC
8C
ENDCHAR
STARTCHAR bullet
ENCODING 8226
SWIDTH 376 0
DWIDTH 9 0
BBX 5 6 2 6
BITMAP
70
F8
F8
F8
F8
70
ENDCHAR
STARTCHAR ellipsis
ENCODING 8230
SWIDTH 791 0
DWIDTH 19 0
BBX 15 3 2 0
BITMAP
C386
E38E
E38E
ENDCHAR
STARTCHAR guilsinglleft
ENCODING 8249
SWIDTH 310 0
DWIDTH 7 0
BBX 6 10 1 1
BITMAP
1C
38
30
60
C0
E0
70
30
1C
08
ENDCHAR
STARTCHAR guilsinglright
ENCODING 8250
SWIDTH 310 0
DWIDTH 7 0
BBX 5 10 1 1
BITMAP
C0
60
30
38
18
18
30
60
C0
40
ENDCHAR
STARTCHAR Euro
ENCODING 8364
SWIDTH 572 0
DWIDTH 14 0
BBX 12 17 1 0
BITMAP
07F0
1FF0
1800
3000
3000
3000
FF80
FF80
6000
6000
FF80
3000
3000
3800
1800
0FF0
07F0
ENDCHAR
STARTCHAR trademark
ENCODING 8482
SWIDTH 773 0
DWIDTH 19 0
BBX 17 8 0 9
BITMAP
FEC380
10E380
10A380
10A780
10B580
109580
109D80
109980
ENDCHAR
STARTCHAR minus
ENCODING 8722
SWIDTH 322 0
DWIDTH 8 0
BBX 6 2 1 5
BITMAP
FC
FC
ENDCHAR
STARTCHAR uniAB70
ENCODING 43888
SWIDTH 628 0
DWIDTH 15 0
BBX 13 13 1 0
BITMAP
FF80
3FE0
3060
3030
3030
3030
3018
3030
3030
3030
3060
33E0
FF80
ENDCHAR
STARTCHAR uniAB71
ENCODING 43889
SWIDTH 583 0
DWIDTH 14 0
BBX 12 13 1 0
BITMAP
FF80
3FC0
3060
3060
3060
30C0
3F80
3F80
30C0
30C0
30C0
3060
F870
ENDCHAR
STARTCHAR uniAB72
ENCODING 43890
SWIDTH 552 0
DWIDTH 13 0
BBX 11 13 1 0
BITMAP
FFE0
FFE0
8620
8620
0600
0600
0600
0600
0600
0600
0600
0600
1F00
ENDCHAR
STARTCHAR uniAB73
ENCODING 43891
SWIDTH 693 0
DWIDTH 17 0
BBX 15 13 1 0
BITMAP
03E0
0180
0180
01C0
0370
3C1C
660C
C304
C306
C304
C30C
7E18
3C70
ENDCHAR
STARTCHAR uniAB74
ENCODING 43892
SWIDTH 867 0
DWIDTH 21 0
BBX 19 13 1 0
BITMAP
1F8380
3FC6C0
606460
606460
C06060
C03060
C038C0
C03FC0
C02700
606000
606000
39C000
1F8000
ENDCHAR
STARTCHAR uniAB75
ENCODING 43893
SWIDTH 287 0
DWIDTH 7 0
BBX 5 13 1 0
BITMAP
20
70
00
00
00
60
60
60
60
60
60
60
F8
ENDCHAR
STARTCHAR uniAB76
ENCODING 43894
SWIDTH 527 0
DWIDTH 13 0
BBX 10 13 1 0
BITMAP
1F00
3180
61C0
6080
6000
3800
FFC0
0300
0180
40C0
6080
6180
3F00
ENDCHAR
STARTCHAR uniAB77
ENCODING 43895
SWIDTH 653 0
DWIDTH 16 0
BBX 13 13 1 0
BITMAP
1FC0
3FE0
2030
0018
7C18
6618
C608
C618
C618
CC18
7830
38E0
1FC0
ENDCHAR
STARTCHAR uniAB78
ENCODING 43896
SWIDTH 577 0
DWIDTH 14 0
BBX 12 13 1 0
BITMAP
F800
3000
3000
3000
3200
3710
3D30
31E0
3000
3000
3000
3000
F800
ENDCHAR
STARTCHAR uniAB79
ENCODING 43897
SWIDTH 587 0
DWIDTH 14 0
BBX 13 13 1 0
BITMAP
F0F8
6020
7060
3040
38C0
1880
0D80
0D80
0700
0700
6600
6C00
7800
ENDCHAR
STARTCHAR uniAB7A
ENCODING 43898
SWIDTH 589 0
DWIDTH 14 0
BBX 14 13 0 0
BITMAP
0380
0780
0780
04C0
0CC0
0CC0
0860
1860
1FE0
3030
3030
3030
F87C
ENDCHAR
STARTCHAR uniAB7B
ENCODING 43899
SWIDTH 478 0
DWIDTH 11 0
BBX 9 13 1 0
BITMAP
0F80
0300
0300
0300
0300
0300
0300
0300
0300
C300
C300
C600
FC00
ENDCHAR
STARTCHAR uniAB7C
ENCODING 43900
SWIDTH 558 0
DWIDTH 13 0
BBX 11 13 1 0
BITMAP
FFE0
3FE0
3020
3000
3100
3100
3F00
3100
3000
3000
3020
3020
FFE0
ENDCHAR
STARTCHAR uniAB7D
ENCODING 43901
SWIDTH 811 0
DWIDTH 19 0
BBX 18 13 1 0
BITMAP
01F000
006000
006000
006000
7C67C0
C467C0
87E300
866600
C66600
EC6C00
787800
007000
007000
ENDCHAR
STARTCHAR uniAB7E
ENCODING 43902
SWIDTH 509 0
DWIDTH 12 0
BBX 10 14 1 0
BITMAP
3F00
7780
00C0
00C0
F8C0
30C0
30C0
3F80
3E00
3000
3000
3000
3000
F800
ENDCHAR
STARTCHAR uniAB7F
ENCODING 43903
SWIDTH 628 0
DWIDTH 15 0
BBX 14 13 0 0
BITMAP
01F0
03B8
0618
0608
040C
0C0C
0FFC
0C0C
0C0C
0C08
0818
F8D8
7070
ENDCHAR
STARTCHAR uniAB80
ENCODING 43904
SWIDTH 485 0
DWIDTH 12 0
BBX 9 13 1 0
BITMAP
F800
3000
3000
3000
3080
3080
3F80
3080
3080
3000
3000
3000
F800
ENDCHAR
STARTCHAR uniAB81
ENCODING 43905
SWIDTH 511 0
DWIDTH 12 0
BBX 11 13 1 0
BITMAP
FFE0
3FE0
3060
3060
3000
3000
3000
3000
3000
3000
3000
3000
F800
ENDCHAR
STARTCHAR uniAB82
ENCODING 43906
SWIDTH 723 0
DWIDTH 17 0
BBX 16 13 1 0
BITMAP
0780
0EC0
1860
1860
1860
1860
1840
0CC0
CCDF
C786
C304
EFCC
7CF8
ENDCHAR
STARTCHAR uniAB83
ENCODING 43907
SWIDTH 845 0
DWIDTH 20 0
BBX 20 13 0 0
BITMAP
F8F9F0
306040
3060C0
3070C0
18F0C0
18F180
189180
199980
0D9B00
0D0B00
0D0B00
070E00
060E00
ENDCHAR
STARTCHAR uniAB84
ENCODING 43908
SWIDTH 618 0
DWIDTH 15 0
BBX 13 13 1 0
BITMAP
00F0
0198
0318
0318
0300
7F00
E300
C300
C300
C300
C300
6600
7C00
ENDCHAR
STARTCHAR uniAB85
ENCODING 43909
SWIDTH 543 0
DWIDTH 13 0
BBX 11 13 1 0
BITMAP
0F80
18C0
3060
3060
2060
2060
23C0
2180
2000
2000
2000
2000
F800
ENDCHAR
STARTCHAR uniAB86
ENCODING 43910
SWIDTH 559 0
DWIDTH 13 0
BBX 11 13 1 0
BITMAP
0FC0
3DE0
7060
6020
C000
C300
C3C0
C3E0
C320
6020
6060
38E0
1F80
ENDCHAR
STARTCHAR uniAB87
ENCODING 43911
SWIDTH 801 0
DWIDTH 19 0
BBX 17 13 1 0
BITMAP
F80F80
380E00
2C0A00
2C1A00
2C1A00
363200
363200
322200
336200
336200
314200
31C200
F9CF80
ENDCHAR
STARTCHAR uniAB88
ENCODING 43912
SWIDTH 649 0
DWIDTH 16 0
BBX 14 13 1 0
BITMAP
0FC0
1CE0
1830
0830
8030
8030
F830
F870
8FF0
0230
0030
0030
007C
ENDCHAR
STARTCHAR uniAB89
ENCODING 43913
SWIDTH 796 0
DWIDTH 19 0
BBX 17 13 1 0
BITMAP
0F8200
021F80
023880
03E080
078180
1E0300
7F0000
D98000
998000
118000
118000
198000
0F0000
ENDCHAR
STARTCHAR uniAB8A
ENCODING 43914
SWIDTH 831 0
DWIDTH 20 0
BBX 17 13 1 0
BITMAP
1F8180
3FC180
706180
603180
C03180
C03180
C03F80
C03180
C03180
603180
606180
39C180
1F8180
ENDCHAR
STARTCHAR uniAB8B
ENCODING 43915
SWIDTH 670 0
DWIDTH 16 0
BBX 14 13 1 0
BITMAP
F87C
3030
3030
3030
3030
3030
3FF0
3030
3030
3030
3030
3030
F87C
ENDCHAR
STARTCHAR uniAB8C
ENCODING 43916
SWIDTH 658 0
DWIDTH 16 0
BBX 15 13 0 0
BITMAP
03E0
0080
0080
01F0
437C
FE0C
3C06
0006
0006
0406
060C
071C
01F0
ENDCHAR
STARTCHAR uniAB8D
ENCODING 43917
SWIDTH 629 0
DWIDTH 15 0
BBX 15 13 0 0
BITMAP
703E
3018
1818
1C30
0C30
0660
0660
03C0
03C0
F180
2180
3300
3E00
ENDCHAR
STARTCHAR uniAB8E
ENCODING 43918
SWIDTH 612 0
DWIDTH 15 0
BBX 12 13 1 0
BITMAP
0F80
3DE0
7060
6030
C030
C030
FFF0
C030
C030
6030
6070
38E0
1F80
ENDCHAR
STARTCHAR uniAB8F
ENCODING 43919
SWIDTH 618 0
DWIDTH 15 0
BBX 13 14 1 -1
BITMAP
3000
3000
3000
FE00
3000
3000
3000
31F8
31F8
3060
3060
19E0
0FE0
0060
ENDCHAR
STARTCHAR uniAB90
ENCODING 43920
SWIDTH 610 0
DWIDTH 15 0
BBX 13 13 1 0
BITMAP
0FC0
38E0
7060
6020
C000
C000
C000
C0F8
C060
6060
6060
39E0
1F60
ENDCHAR
STARTCHAR uniAB91
ENCODING 43921
SWIDTH 669 0
DWIDTH 16 0
BBX 15 13 0 0
BITMAP
01F0
0338
0618
0608
040C
0C0C
0C0C
0C0C
0C0C
0C0C
080C
F80C
703E
ENDCHAR
STARTCHAR uniAB92
ENCODING 43922
SWIDTH 620 0
DWIDTH 15 0
BBX 13 13 1 0
BITMAP
F800
3000
3000
3000
37C0
3FE0
3860
3060
3030
3030
3030
3030
F8F8
ENDCHAR
STARTCHAR uniAB93
ENCODING 43923
SWIDTH 503 0
DWIDTH 12 0
BBX 10 13 1 0
BITMAP
FFC0
FFC0
C180
C300
0300
0600
0C00
1800
3800
3000
6040
C040
FFC0
ENDCHAR
STARTCHAR uniAB94
ENCODING 43924
SWIDTH 587 0
DWIDTH 14 0
BBX 12 13 1 0
BITMAP
1F00
31C0
60C0
F0C0
0060
0060
F0E0
60E0
73E0
1E60
0060
0060
01F0
ENDCHAR
STARTCHAR uniAB95
ENCODING 43925
SWIDTH 885 0
DWIDTH 21 0
BBX 20 13 1 0
BITMAP
1F8000
3FC000
606000
606000
C06200
C03E30
C03B20
C031E0
C02000
606000
606000
39C000
1F8000
ENDCHAR
STARTCHAR uniAB96
ENCODING 43926
SWIDTH 600 0
DWIDTH 14 0
BBX 12 13 1 0
BITMAP
FFF0
FFF0
C630
C630
0600
0600
0600
0600
0600
0600
4610
4610
7FF0
ENDCHAR
STARTCHAR uniAB97
ENCODING 43927
SWIDTH 818 0
DWIDTH 20 0
BBX 17 13 1 0
BITMAP
007C00
01FF00
030300
000180
000180
000180
C08080
C08080
C18180
C18180
C1C180
676700
3E3E00
ENDCHAR
STARTCHAR uniAB98
ENCODING 43928
SWIDTH 706 0
DWIDTH 17 0
BBX 15 13 1 0
BITMAP
3C7C
7FFE
C386
C386
C6C6
0C6C
0C60
0C60
0860
0860
0C60
0CC0
07C0
ENDCHAR
STARTCHAR uniAB99
ENCODING 43929
SWIDTH 1035 0
DWIDTH 25 0
BBX 23 13 1 0
BITMAP
06031C
0303FE
030602
030602
010466
F18C3C
938C00
839800
C69800
FCD800
00F000
007000
006000
ENDCHAR
STARTCHAR uniAB9A
ENCODING 43930
SWIDTH 854 0
DWIDTH 21 0
BBX 18 13 1 0
BITMAP
007E00
01FF00
018180
0000C0
0000C0
0020C0
C0F8C0
C0D0C0
C080C0
C180C0
C1C180
676380
3E3E00
ENDCHAR
STARTCHAR uniAB9B
ENCODING 43931
SWIDTH 526 0
DWIDTH 13 0
BBX 10 13 1 0
BITMAP
1F80
7980
6000
6000
6000
3F00
3C00
6000
C1C0
C0C0
E040
71C0
3F80
ENDCHAR
STARTCHAR uniAB9C
ENCODING 43932
SWIDTH 645 0
DWIDTH 15 0
BBX 13 13 1 0
BITMAP
F878
2030
2030
2030
2030
3FF0
3FF0
2030
2030
2030
3030
38E0
1FC0
ENDCHAR
STARTCHAR uniAB9D
ENCODING 43933
SWIDTH 844 0
DWIDTH 20 0
BBX 18 13 1 0
BITMAP
01FC00
07FF00
0C0380
000180
0000C0
3C7CC0
7E30C0
C330C0
C3F0C0
C330C0
C330C0
661980
7C1F00
ENDCHAR
STARTCHAR uniAB9E
ENCODING 43934
SWIDTH 493 0
DWIDTH 12 0
BBX 11 13 0 0
BITMAP
0380
0380
0780
0D80
1980
1180
3180
6180
FFE0
FFE0
0180
0180
03C0
ENDCHAR
STARTCHAR uniAB9F
ENCODING 43935
SWIDTH 534 0
DWIDTH 13 0
BBX 11 13 1 0
BITMAP
F800
3000
3000
3000
3000
3C00
3FC0
30E0
3060
3060
3060
31C0
FF80
ENDCHAR
STARTCHAR uniABA0
ENCODING 43936
SWIDTH 542 0
DWIDTH 13 0
BBX 11 13 1 0
BITMAP
1F00
0400
0400
0400
0480
C7E0
8E20
FC60
6400
0400
0400
0400
1F00
ENDCHAR
STARTCHAR uniABA1
ENCODING 43937
SWIDTH 702 0
DWIDTH 17 0
BBX 15 13 1 0
BITMAP
7810
CC7C
8CC6
CF86
FE06
180C
0800
1C00
1F80
1880
1880
1980
0F00
ENDCHAR
STARTCHAR uniABA2
ENCODING 43938
SWIDTH 591 0
DWIDTH 14 0
BBX 12 13 1 0
BITMAP
FF80
3FE0
3060
3030
3020
3660
33E0
3380
3180
3180
30C0
3060
F9F0
ENDCHAR
STARTCHAR uniABA3
ENCODING 43939
SWIDTH 514 0
DWIDTH 12 0
BBX 10 13 1 0
BITMAP
F800
2000
2000
2000
2000
2100
23C0
2640
2640
3040
30C0
39C0
1F80
ENDCHAR
STARTCHAR uniABA4
ENCODING 43940
SWIDTH 808 0
DWIDTH 19 0
BBX 19 13 0 0
BITMAP
E31860
6198C0
61B0C0
30B1C0
30E180
30E180
18E300
18E300
18A200
0DB600
0D3600
0F1C00
071C00
ENDCHAR
STARTCHAR uniABA5
ENCODING 43941
SWIDTH 564 0
DWIDTH 14 0
BBX 12 13 1 0
BITMAP
1F00
7380
61F0
40F0
6000
7800
1E00
0780
0180
01F0
C180
E380
7F00
ENDCHAR
STARTCHAR uniABA6
ENCODING 43942
SWIDTH 634 0
DWIDTH 15 0
BBX 13 13 1 0
BITMAP
FFE0
FFE0
8600
8600
0600
06C0
07F0
0618
0618
0618
0618
0730
03E0
ENDCHAR
STARTCHAR uniABA7
ENCODING 43943
SWIDTH 571 0
DWIDTH 14 0
BBX 12 13 0 0
BITMAP
01F0
0060
0060
0060
0060
0060
00E0
00E0
01E0
0160
6360
EE60
7870
ENDCHAR
STARTCHAR uniABA8
ENCODING 43944
SWIDTH 599 0
DWIDTH 14 0
BBX 13 13 0 0
BITMAP
1FF8
1FF8
1860
1860
0060
0060
0060
00E0
00E0
01E0
6360
EE60
7860
ENDCHAR
STARTCHAR uniABA9
ENCODING 43945
SWIDTH 591 0
DWIDTH 14 0
BBX 14 13 0 0
BITMAP
F87C
3018
3030
3030
1860
1860
1860
0CC0
0CC0
0CC0
0780
0780
0700
ENDCHAR
STARTCHAR uniABAA
ENCODING 43946
SWIDTH 483 0
DWIDTH 12 0
BBX 9 13 1 0
BITMAP
1F00
7380
6180
6180
6000
7800
1E00
0700
0180
0180
C180
E300
7E00
ENDCHAR
STARTCHAR uniABAB
ENCODING 43947
SWIDTH 852 0
DWIDTH 20 0
BBX 19 13 1 0
BITMAP
0FC780
3FEFC0
333860
633060
6332C0
C303C0
C30000
C30000
C30000
C30000
620000
660000
3C0000
ENDCHAR
STARTCHAR uniABAC
ENCODING 43948
SWIDTH 659 0
DWIDTH 16 0
BBX 14 13 1 0
BITMAP
0780
0CC0
0840
08C0
0DC0
0700
1DE0
7038
D8D8
CCCC
8C8C
CCCC
7878
ENDCHAR
STARTCHAR uniABAD
ENCODING 43949
SWIDTH 540 0
DWIDTH 13 0
BBX 11 13 1 0
BITMAP
0F80
1CC0
30E0
3060
2000
2000
2000
2000
2000
2060
2060
2060
FFE0
ENDCHAR
STARTCHAR uniABAE
ENCODING 43950
SWIDTH 520 0
DWIDTH 12 0
BBX 11 13 1 0
BITMAP
F800
3000
3000
3000
3000
3000
3000
3000
3000
3060
3060
3060
FFE0
ENDCHAR
STARTCHAR uniABAF
ENCODING 43951
SWIDTH 550 0
DWIDTH 13 0
BBX 11 13 1 0
BITMAP
0F80
3DE0
7060
6060
C000
C000
C000
C000
C000
6060
6060
38C0
1F80
ENDCHAR
STARTCHAR uniABB0
ENCODING 43952
SWIDTH 703 0
DWIDTH 17 0
BBX 15 13 1 0
BITMAP
003E
7C18
CC18
8618
8618
E618
7FF8
0618
0618
0618
0618
0738
03F0
ENDCHAR
STARTCHAR uniABB1
ENCODING 43953
SWIDTH 723 0
DWIDTH 17 0
BBX 17 13 0 0
BITMAP
0F1E00
3BFF00
30E100
21E180
F9B180
033000
031800
031800
021800
061800
031800
033800
01F000
ENDCHAR
STARTCHAR uniABB2
ENCODING 43954
SWIDTH 534 0
DWIDTH 13 0
BBX 11 13 1 0
BITMAP
FF00
3FC0
3060
3060
3060
3060
31C0
3F80
3000
3000
3000
3000
F800
ENDCHAR
STARTCHAR uniABB3
ENCODING 43955
SWIDTH 581 0
DWIDTH 14 0
BBX 12 13 1 0
BITMAP
0F80
3FC0
7060
60F0
C000
C000
C000
C000
C060
6060
6060
3DE0
1F80
ENDCHAR
STARTCHAR uniABB4
ENCODING 43956
SWIDTH 659 0
DWIDTH 16 0
BBX 14 13 1 0
BITMAP
FF8C
FF9C
8418
8430
0430
0460
0460
04C0
04C0
0580
0580
0700
0600
ENDCHAR
STARTCHAR uniABB5
ENCODING 43957
SWIDTH 727 0
DWIDTH 17 0
BBX 16 13 1 0
BITMAP
F800
3000
3000
3000
3020
37FE
3C67
3863
3063
3060
3060
3060
F9F0
ENDCHAR
STARTCHAR uniABB6
ENCODING 43958
SWIDTH 616 0
DWIDTH 15 0
BBX 13 13 1 0
BITMAP
F8F8
3060
30C0
3180
3300
3600
3F00
3B80
3180
30C0
3060
3070
F8F8
ENDCHAR
STARTCHAR uniABB7
ENCODING 43959
SWIDTH 483 0
DWIDTH 12 0
BBX 10 13 1 0
BITMAP
07C0
0300
0300
0300
0300
1300
7F00
C700
C300
C300
C300
E600
7C00
ENDCHAR
STARTCHAR uniABB8
ENCODING 43960
SWIDTH 659 0
DWIDTH 16 0
BBX 14 13 1 0
BITMAP
0F94
39F4
707C
6048
C000
C000
C000
C000
C000
6048
6078
39F4
1F94
ENDCHAR
STARTCHAR uniABB9
ENCODING 43961
SWIDTH 704 0
DWIDTH 17 0
BBX 15 13 1 0
BITMAP
0FC0
38E0
6060
6060
C000
C000
C000
C0F8
C060
6062
6062
39F6
1F9C
ENDCHAR
STARTCHAR uniABBA
ENCODING 43962
SWIDTH 869 0
DWIDTH 21 0
BBX 19 13 1 0
BITMAP
078380
0FC7C0
0CCC40
184C60
184C60
08CC60
0CC640
0CC6C0
CC83C0
C78180
C30380
E7CF00
7CFC00
ENDCHAR
STARTCHAR uniABBB
ENCODING 43963
SWIDTH 613 0
DWIDTH 15 0
BBX 13 13 1 0
BITMAP
0F80
3DE0
6070
6030
FE30
FE30
C218
C3F0
C3F0
6030
6070
38E0
1FC0
ENDCHAR
STARTCHAR uniABBC
ENCODING 43964
SWIDTH 848 0
DWIDTH 20 0
BBX 18 13 1 0
BITMAP
3C0F00
7E1F80
6330C0
C330C0
C330C0
C318C0
C304C0
6600C0
660180
7C0180
380700
1FBE00
07F800
ENDCHAR
STARTCHAR uniABBD
ENCODING 43965
SWIDTH 506 0
DWIDTH 12 0
BBX 10 13 1 0
BITMAP
1F00
3B80
6180
60C0
60C0
70C0
38C0
1EC0
07C0
C180
C180
6700
3E00
ENDCHAR
STARTCHAR uniABBE
ENCODING 43966
SWIDTH 501 0
DWIDTH 12 0
BBX 10 13 1 0
BITMAP
0F00
3980
21C0
6080
6000
4F00
FB80
E180
E0C0
40C0
6180
7380
3F00
ENDCHAR
STARTCHAR uniABBF
ENCODING 43967
SWIDTH 847 0
DWIDTH 20 0
BBX 18 13 1 0
BITMAP
01FC00
07DF00
020380
000180
0000C0
0A00C0
C778C0
C1C0C0
C0C0C0
C0C0C0
C1C180
636380
3E3F00
ENDCHAR
STARTCHAR .notdef
ENCODING -1
SWIDTH 600 0
DWIDTH 14 0
BBX 10 17 2 0
BITMAP
FFC0
8040
8040
8040
8040
8040
8040
8040
8040
8040
8040
8040
8040
8040
8040
8040
FFC0
ENDCHAR
STARTCHAR uni13A0.alt
ENCODING -1
SWIDTH 739 0
DWIDTH 18 0
BBX 14 16 2 0
BITMAP
FE00
FFE0
6070
6038
6018
601C
600C
600C
600C
600C
600C
6018
6018
6030
63E0
FF80
ENDCHAR
STARTCHAR uni13A1.alt
ENCODING -1
SWIDTH 677 0
DWIDTH 16 0
BBX 13 16 2 0
BITMAP
FC00
FFC0
6060
6030
6030
6030
6060
60E0
7F80
60C0
6060
6060
6060
6060
6030
F838
ENDCHAR
STARTCHAR uni13A2.alt
ENCODING -1
SWIDTH 640 0
DWIDTH 15 0
BBX 14 16 1 0
BITMAP
FFFC
FFFC
830C
830C
0300
0300
0300
0300
0300
0300
0300
0300
0300
0300
0300
0FC0
ENDCHAR
STARTCHAR uni13A3.alt
ENCODING -1
SWIDTH 809 0
DWIDTH 19 0
BBX 17 16 1 0
BITMAP
01F000
01F000
004000
004000
00F000
01BC00
1F0600
3F0300
618180
C18180
C08180
C08180
C18180
618300
7F0E00
1E1C00
ENDCHAR
STARTCHAR uni13A4.alt
ENCODING -1
SWIDTH 1014 0
DWIDTH 24 0
BBX 22 16 1 0
BITMAP
078070
1FE0F8
38308C
70188C
601884
600C0C
E00C0C
C00C0C
C00E18
C00FF8
600CE0
601800
601800
303800
3C7000
0FE000
ENDCHAR
STARTCHAR uni13A5.alt
ENCODING -1
SWIDTH 321 0
DWIDTH 8 0
BBX 6 16 1 0
BITMAP
20
30
30
00
00
00
30
30
30
30
30
30
30
30
30
FC
ENDCHAR
STARTCHAR uni13A6.alt
ENCODING -1
SWIDTH 648 0
DWIDTH 16 0
BBX 12 16 2 0
BITMAP
0F00
3FC0
6040
60E0
6040
6000
3000
1FF0
FFF0
0180
00C0
0060
6060
E0C0
61C0
3F80
ENDCHAR
STARTCHAR uni13A7.alt
ENCODING -1
SWIDTH 761 0
DWIDTH 18 0
BBX 16 16 1 0
BITMAP
07C0
1FF8
301C
000E
0006
3E07
6303
6103
C103
C103
C303
6606
6C0E
700C
3C38
0FE0
ENDCHAR
STARTCHAR uni13A8.alt
ENCODING -1
SWIDTH 664 0
DWIDTH 16 0
BBX 13 16 2 0
BITMAP
F800
F800
6000
6000
6000
6100
6708
6D08
7998
60F0
6000
6000
6000
6000
6000
F800
ENDCHAR
STARTCHAR uni13A9.alt
ENCODING -1
SWIDTH 693 0
DWIDTH 17 0
BBX 15 16 1 0
BITMAP
F83E
F83E
3008
3018
1810
1830
0C30
0C60
0660
06C0
03C0
0380
0180
2300
7600
3C00
ENDCHAR
STARTCHAR uni13AA.alt
ENCODING -1
SWIDTH 692 0
DWIDTH 17 0
BBX 16 16 0 0
BITMAP
01C0
01C0
0140
0360
0260
0620
0630
0430
0C10
0C18
0FF8
180C
180C
300C
300E
FC1F
ENDCHAR
STARTCHAR uni13AB.alt
ENCODING -1
SWIDTH 551 0
DWIDTH 13 0
BBX 11 16 1 0
BITMAP
07E0
07E0
0180
0180
0180
0180
0180
0180
0180
0180
0180
8180
C180
8180
C700
7E00
ENDCHAR
STARTCHAR uni13AC.alt
ENCODING -1
SWIDTH 651 0
DWIDTH 16 0
BBX 12 16 2 0
BITMAP
FFF0
FFF0
6010
6010
6000
6000
6180
7F80
7F80
6180
6000
6000
6010
6010
6010
FFF0
ENDCHAR
STARTCHAR uni13AD.alt
ENCODING -1
SWIDTH 932 0
DWIDTH 22 0
BBX 21 16 1 0
BITMAP
007C00
007C00
001800
001800
001800
7C1800
E619F8
C37860
C3D8C0
C31980
C31980
C61300
7E1200
001600
001C00
001800
ENDCHAR
STARTCHAR uni13AE.alt
ENCODING -1
SWIDTH 584 0
DWIDTH 14 0
BBX 11 17 2 0
BITMAP
7F00
FF80
00C0
0060
0060
F860
6060
60C0
61C0
7F80
6000
6000
6000
6000
6000
6000
F800
ENDCHAR
STARTCHAR uni13AF.alt
ENCODING -1
SWIDTH 717 0
DWIDTH 17 0
BBX 16 16 0 0
BITMAP
0070
01FC
030E
0306
0606
0602
0602
0603
07FF
0603
0403
0C06
0C06
0C06
F83C
703C
ENDCHAR
STARTCHAR uni13B0.alt
ENCODING -1
SWIDTH 566 0
DWIDTH 14 0
BBX 10 16 2 0
BITMAP
F800
F800
6000
6000
6000
6040
6040
7FC0
7FC0
6040
6040
6000
6000
6000
6000
F800
ENDCHAR
STARTCHAR uni13B1.alt
ENCODING -1
SWIDTH 594 0
DWIDTH 14 0
BBX 12 16 2 0
BITMAP
FFF0
FFF0
6030
6030
6030
6000
6000
6000
6000
6000
6000
6000
6000
6000
6000
F800
ENDCHAR
STARTCHAR uni13B2.alt
ENCODING -1
SWIDTH 846 0
DWIDTH 20 0
BBX 19 16 1 0
BITMAP
01C000
07F000
063000
0C1800
0C1800
0C1800
0C1800
0C1000
063000
063000
C663E0
C36080
C1C180
C1C180
677300
3E3E00
ENDCHAR
STARTCHAR uni13B3.alt
ENCODING -1
SWIDTH 989 0
DWIDTH 24 0
BBX 23 16 0 0
BITMAP
FC7E3E
FC7E3E
301808
181818
183818
183C10
182C30
0C6430
0C6620
0C4660
04C660
06C240
068340
0683C0
0383C0
038180
ENDCHAR
STARTCHAR uni13B4.alt
ENCODING -1
SWIDTH 720 0
DWIDTH 17 0
BBX 16 16 1 0
BITMAP
0038
007E
00C2
00C7
0086
0080
3EC0
73C0
61C0
C0C0
C0C0
C080
C180
C180
6300
3E00
ENDCHAR
STARTCHAR uni13B5.alt
ENCODING -1
SWIDTH 630 0
DWIDTH 15 0
BBX 13 16 1 0
BITMAP
03C0
0FE0
1830
3818
3018
3018
3018
3098
30F0
3040
3000
3000
3000
3000
3000
FC00
ENDCHAR
STARTCHAR uni13B6.alt
ENCODING -1
SWIDTH 652 0
DWIDTH 16 0
BBX 14 16 1 0
BITMAP
03C0
1FF0
3818
3018
6008
6000
6080
C080
C0F0
C098
6088
600C
6008
3018
1C70
0FE0
ENDCHAR
STARTCHAR uni13B7.alt
ENCODING -1
SWIDTH 927 0
DWIDTH 22 0
BBX 19 16 2 0
BITMAP
F803E0
F807E0
780780
6C0580
6C0D80
6C0D80
660980
661980
661980
631180
633180
633180
61A180
61E180
61E180
F8C7E0
ENDCHAR
STARTCHAR uni13B8.alt
ENCODING -1
SWIDTH 750 0
DWIDTH 18 0
BBX 16 16 1 0
BITMAP
01C0
07F0
0C18
0C18
040C
000C
C00C
C00C
F80C
CC3C
C7EC
018C
000C
000C
000C
003F
ENDCHAR
STARTCHAR uni13B9.alt
ENCODING -1
SWIDTH 920 0
DWIDTH 22 0
BBX 20 16 1 0
BITMAP
07C000
07C3E0
010770
010C30
03F810
03E030
0300E0
3F00C0
ED8000
CCC000
98C000
184000
184000
18C000
1CC000
0F8000
ENDCHAR
STARTCHAR uni13BA.alt
ENCODING -1
SWIDTH 975 0
DWIDTH 23 0
BBX 20 16 1 0
BITMAP
07C000
1FF030
383830
701830
600C30
600C30
600C30
C007F0
C007F0
E00C30
600C30
600C30
600C30
301830
1CF030
0FE030
ENDCHAR
STARTCHAR uni13BB.alt
ENCODING -1
SWIDTH 784 0
DWIDTH 19 0
BBX 15 16 2 0
BITMAP
F83E
F83E
6008
6008
6008
6008
6008
7FF8
7FF8
6008
6008
6008
6008
6008
6008
F83E
ENDCHAR
STARTCHAR uni13BC.alt
ENCODING -1
SWIDTH 747 0
DWIDTH 18 0
BBX 17 16 0 0
BITMAP
01F000
01F000
004000
004000
00F800
01BE00
C38700
7E0300
180180
000180
000180
060180
060100
060300
038E00
01FC00
ENDCHAR
STARTCHAR uni13BD.alt
ENCODING -1
SWIDTH 743 0
DWIDTH 18 0
BBX 17 16 0 0
BITMAP
300F80
300F80
180200
1C0600
0C0400
060C00
060800
031800
039000
01B000
00E000
F8E000
30C000
30C000
398000
1F0000
ENDCHAR
STARTCHAR uni13BE.alt
ENCODING -1
SWIDTH 716 0
DWIDTH 17 0
BBX 15 16 1 0
BITMAP
03C0
1FF0
3838
701C
600C
600C
6006
FFFE
FFFE
C006
6006
600C
600C
3018
1C70
0FE0
ENDCHAR
STARTCHAR uni13BF.alt
ENCODING -1
SWIDTH 718 0
DWIDTH 17 0
BBX 16 18 1 -2
BITMAP
1800
1800
1800
1800
FF80
1800
1800
1800
1800
18FF
18FF
1818
1818
1838
1CF8
07D8
0018
0018
ENDCHAR
STARTCHAR uni13C0.alt
ENCODING -1
SWIDTH 717 0
DWIDTH 17 0
BBX 15 16 1 0
BITMAP
03C0
0FF8
3818
3008
6008
6000
6000
C000
C000
C03E
6018
6008
6018
3018
3C68
0FC8
ENDCHAR
STARTCHAR uni13C1.alt
ENCODING -1
SWIDTH 772 0
DWIDTH 19 0
BBX 16 16 1 0
BITMAP
00F0
03F8
060C
060C
0C0C
0C04
0C04
0C04
0C04
0C04
0804
1804
1804
9804
F004
E01F
ENDCHAR
STARTCHAR uni13C2.alt
ENCODING -1
SWIDTH 719 0
DWIDTH 17 0
BBX 14 16 2 0
BITMAP
F800
F800
6000
6000
6000
6180
6FE0
7870
7030
7030
6010
6018
6018
6018
6018
F87C
ENDCHAR
STARTCHAR uni13C3.alt
ENCODING -1
SWIDTH 588 0
DWIDTH 14 0
BBX 12 16 1 0
BITMAP
FFF0
FFF0
C060
C060
00C0
0180
0300
0300
0600
0C00
1800
1800
3010
6030
C030
FFF0
ENDCHAR
STARTCHAR uni13C4.alt
ENCODING -1
SWIDTH 677 0
DWIDTH 16 0
BBX 14 16 1 0
BITMAP
0700
1FC0
3060
6030
F830
0030
0030
F830
6030
6070
30F0
1FB0
0030
0030
0030
00FC
ENDCHAR
STARTCHAR uni13C5.alt
ENCODING -1
SWIDTH 1038 0
DWIDTH 25 0
BBX 23 16 1 0
BITMAP
078000
1FE000
383000
701800
601800
600C40
E00DC2
C00F42
C00E66
C00C3C
600C00
601800
601800
303800
3C7000
0FC000
ENDCHAR
STARTCHAR uni13C6.alt
ENCODING -1
SWIDTH 707 0
DWIDTH 17 0
BBX 13 16 2 0
BITMAP
FFF8
FFF8
8618
8618
0600
0600
0600
0600
0600
0600
0600
0600
8608
8608
C608
FFF8
ENDCHAR
STARTCHAR uni13C7.alt
ENCODING -1
SWIDTH 957 0
DWIDTH 23 0
BBX 21 16 1 0
BITMAP
000F00
007FC0
00E0E0
004060
000030
000030
000010
600018
406018
C06018
C06030
C06030
C0E030
60F060
73B8E0
3F0F80
ENDCHAR
STARTCHAR uni13C8.alt
ENCODING -1
SWIDTH 810 0
DWIDTH 19 0
BBX 18 16 1 0
BITMAP
1C0E00
7F7F80
61E180
C1C0C0
C1E0C0
C36180
063380
063000
041800
0C1800
0C1800
0C1800
0C1800
0C3000
067000
03E000
ENDCHAR
STARTCHAR uni13C9.alt
ENCODING -1
SWIDTH 1207 0
DWIDTH 29 0
BBX 27 16 1 0
BITMAP
0180C000
0180E7C0
0180FC60
01808020
00C18420
00C18C60
78C107C0
F8C30000
88E30000
81E20000
C3660000
FE260000
3C340000
003C0000
003C0000
00180000
ENDCHAR
STARTCHAR uni13CA.alt
ENCODING -1
SWIDTH 991 0
DWIDTH 24 0
BBX 21 16 1 0
BITMAP
000F00
007FC0
00E070
004030
000018
000018
000018
601C18
403618
C06418
C06018
C06018
C06038
60F030
73BCE0
3F0FC0
ENDCHAR
STARTCHAR uni13CB.alt
ENCODING -1
SWIDTH 616 0
DWIDTH 15 0
BBX 11 16 2 0
BITMAP
1F00
7FC0
6040
C000
C000
C000
7800
1F80
7000
C000
C0C0
80E0
C020
C060
F0E0
3F80
ENDCHAR
STARTCHAR uni13CC.alt
ENCODING -1
SWIDTH 756 0
DWIDTH 18 0
BBX 16 16 1 0
BITMAP
FC3F
FC3F
300C
300C
300C
300C
300C
3FFC
300C
300C
300C
300C
300C
381C
1E38
0FF0
ENDCHAR
STARTCHAR uni13CD.alt
ENCODING -1
SWIDTH 973 0
DWIDTH 23 0
BBX 21 16 1 0
BITMAP
003C00
03FF80
0F01C0
040060
000030
000030
003F18
3F3F18
630C18
C19C18
C1FC18
C1CC18
C18C18
C18C30
630670
3E03E0
ENDCHAR
STARTCHAR uni13CE.alt
ENCODING -1
SWIDTH 584 0
DWIDTH 14 0
BBX 13 16 0 0
BITMAP
00C0
01C0
0340
0340
0640
0CC0
08C0
18C0
30C0
60C0
40C0
FFF8
00C0
00C0
00C0
01F0
ENDCHAR
STARTCHAR uni13CF.alt
ENCODING -1
SWIDTH 621 0
DWIDTH 15 0
BBX 12 16 2 0
BITMAP
F800
F800
6000
6000
6000
6000
6000
7F80
63E0
6060
6030
6030
6030
6060
61E0
FF80
ENDCHAR
STARTCHAR uni13D0.alt
ENCODING -1
SWIDTH 629 0
DWIDTH 15 0
BBX 14 16 1 0
BITMAP
0F80
0F80
0300
0300
0300
0300
C3F8
C398
871C
FF18
7300
0300
0300
0300
0300
0F80
ENDCHAR
STARTCHAR uni13D1.alt
ENCODING -1
SWIDTH 816 0
DWIDTH 20 0
BBX 18 16 1 0
BITMAP
380000
7C0F00
C63F80
C660C0
C7C0C0
7F8080
3C0380
0C0200
0C0000
0E0000
0FC000
084000
186000
086000
0CC000
078000
ENDCHAR
STARTCHAR uni13D2.alt
ENCODING -1
SWIDTH 686 0
DWIDTH 16 0
BBX 13 16 2 0
BITMAP
FE00
FFE0
6070
6030
6018
6018
6030
6330
63E0
6180
6180
60C0
60C0
6060
6060
F8F8
ENDCHAR
STARTCHAR uni13D3.alt
ENCODING -1
SWIDTH 589 0
DWIDTH 14 0
BBX 12 16 1 0
BITMAP
FC00
FC00
3000
3000
3000
3000
3000
30E0
31F0
3330
3330
3130
3030
1830
1C60
0FC0
ENDCHAR
STARTCHAR uni13D4.alt
ENCODING -1
SWIDTH 924 0
DWIDTH 22 0
BBX 21 16 1 0
BITMAP
C30C18
C18C30
C19830
619860
60D060
60F060
3070C0
3060C0
306180
18E180
18F180
18B300
0D9300
0D1A00
0F1E00
070C00
ENDCHAR
STARTCHAR uni13D5.alt
ENCODING -1
SWIDTH 664 0
DWIDTH 16 0
BBX 13 16 2 0
BITMAP
1E00
7F80
60C0
C0F8
C0F8
C000
6000
3C00
1F00
0380
00C0
00F8
80F8
80C0
C380
7F00
ENDCHAR
STARTCHAR uni13D6.alt
ENCODING -1
SWIDTH 727 0
DWIDTH 17 0
BBX 15 16 1 0
BITMAP
FFF8
FFF8
8300
8300
0300
0300
0300
0378
03DC
0306
0306
0306
0306
0306
018C
00F8
ENDCHAR
STARTCHAR uni13D7.alt
ENCODING -1
SWIDTH 663 0
DWIDTH 16 0
BBX 13 16 1 0
BITMAP
00F8
00F8
0030
0030
0030
0030
0070
0070
0070
00F0
00B0
01B0
0330
C630
CC30
F838
ENDCHAR
STARTCHAR uni13D8.alt
ENCODING -1
SWIDTH 695 0
DWIDTH 17 0
BBX 14 16 1 0
BITMAP
1FFC
1FFC
1830
1030
1030
0030
0030
0030
0070
0070
00F0
00B0
01B0
C330
CE30
F830
ENDCHAR
STARTCHAR uni13D9.alt
ENCODING -1
SWIDTH 693 0
DWIDTH 17 0
BBX 16 16 0 0
BITMAP
FC1F
FC1F
300C
180C
180C
1818
0C18
0C18
0C30
0630
0620
0660
0360
0340
03C0
01C0
ENDCHAR
STARTCHAR uni13DA.alt
ENCODING -1
SWIDTH 568 0
DWIDTH 14 0
BBX 10 16 2 0
BITMAP
1E00
7F80
6080
C080
C000
C000
6000
3C00
1F00
0380
01C0
00C0
80C0
8180
C380
7F00
ENDCHAR
STARTCHAR uni13DB.alt
ENCODING -1
SWIDTH 987 0
DWIDTH 24 0
BBX 22 16 1 0
BITMAP
03C0E0
0FF1F8
199B0C
318E0C
618C0C
618C0C
6180F8
418020
C18000
C18000
C18000
418000
618000
610000
730000
3E0000
ENDCHAR
STARTCHAR uni13DC.alt
ENCODING -1
SWIDTH 758 0
DWIDTH 18 0
BBX 16 16 1 0
BITMAP
01C0
07E0
0430
0C30
0430
0660
03C0
07E0
1C38
380E
6C37
C623
C661
C661
C633
7C3E
ENDCHAR
STARTCHAR uni13DD.alt
ENCODING -1
SWIDTH 638 0
DWIDTH 15 0
BBX 13 16 1 0
BITMAP
03C0
0FF0
1830
1838
3030
3000
3000
3000
3000
3000
3000
3000
3018
3018
3018
FFF8
ENDCHAR
STARTCHAR uni13DE.alt
ENCODING -1
SWIDTH 602 0
DWIDTH 14 0
BBX 12 16 2 0
BITMAP
F800
F800
6000
6000
6000
6000
6000
6000
6000
6000
6000
6000
6030
6030
6030
FFF0
ENDCHAR
STARTCHAR uni13DF.alt
ENCODING -1
SWIDTH 646 0
DWIDTH 16 0
BBX 13 16 1 0
BITMAP
03C0
1FF0
3818
3018
6018
6000
6000
C000
C000
C000
6000
6000
6018
3018
3C70
0FE0
ENDCHAR
STARTCHAR uni13E0.alt
ENCODING -1
SWIDTH 812 0
DWIDTH 19 0
BBX 17 16 1 0
BITMAP
000F80
380F80
7E0200
C60200
820200
C30200
C30200
F30200
3FFE00
030200
030200
030600
030600
030600
018C00
00F800
ENDCHAR
STARTCHAR uni13E1.alt
ENCODING -1
SWIDTH 846 0
DWIDTH 20 0
BBX 19 16 0 0
BITMAP
070380
1FCFC0
187860
303060
307860
FCCC60
00CC00
018600
018600
018600
010600
030600
010600
018600
01CC00
00F800
ENDCHAR
STARTCHAR uni13E2.alt
ENCODING -1
SWIDTH 621 0
DWIDTH 15 0
BBX 12 16 2 0
BITMAP
FC00
FFC0
6060
6030
6030
6030
6030
6060
7FC0
7F00
6000
6000
6000
6000
6000
F800
ENDCHAR
STARTCHAR uni13E3.alt
ENCODING -1
SWIDTH 682 0
DWIDTH 16 0
BBX 14 16 1 0
BITMAP
0380
1FF0
3830
3018
607C
6000
6000
C000
C000
C000
6018
6018
6008
3018
3E70
0FE0
ENDCHAR
STARTCHAR uni13E4.alt
ENCODING -1
SWIDTH 749 0
DWIDTH 18 0
BBX 16 16 1 0
BITMAP
FFC3
FFC3
8206
8206
020C
020C
0218
0218
0230
0230
0260
0240
02C0
0280
0380
0300
ENDCHAR
STARTCHAR uni13E5.alt
ENCODING -1
SWIDTH 841 0
DWIDTH 20 0
BBX 18 16 2 0
BITMAP
F80000
F80000
600000
600000
600000
600000
63FE00
6FB780
7830C0
7031C0
703180
603000
603000
603000
603000
F8F800
ENDCHAR
STARTCHAR uni13E6.alt
ENCODING -1
SWIDTH 717 0
DWIDTH 17 0
BBX 14 16 2 0
BITMAP
F87C
F87C
6030
6060
60C0
6180
6300
6700
6F00
7980
70C0
60E0
6060
6030
6038
F87C
ENDCHAR
STARTCHAR uni13E7.alt
ENCODING -1
SWIDTH 551 0
DWIDTH 13 0
BBX 11 16 1 0
BITMAP
07E0
07E0
0180
0180
0180
0180
0180
3D80
7780
C180
C180
C180
C180
C180
6300
3E00
ENDCHAR
STARTCHAR uni13E8.alt
ENCODING -1
SWIDTH 768 0
DWIDTH 18 0
BBX 17 16 1 0
BITMAP
078000
1FE480
383F80
301B00
601200
600000
600000
C00000
C00000
C00000
600000
600000
601200
303F00
3C6D80
0FC400
ENDCHAR
STARTCHAR uni13E9.alt
ENCODING -1
SWIDTH 824 0
DWIDTH 20 0
BBX 18 16 1 0
BITMAP
03C000
0FF000
381800
301800
601800
600000
600000
C00000
C00000
C07E00
601800
601800
601840
303840
3C7CC0
0FC780
ENDCHAR
STARTCHAR uni13EA.alt
ENCODING -1
SWIDTH 1001 0
DWIDTH 24 0
BBX 22 16 1 0
BITMAP
01C020
07E0F8
063198
0C310C
0C310C
0C310C
0C310C
0C318C
043188
0620D8
C660D8
C34070
C3C030
C1C060
67F1C0
3E3F80
ENDCHAR
STARTCHAR uni13EB.alt
ENCODING -1
SWIDTH 717 0
DWIDTH 17 0
BBX 15 16 1 0
BITMAP
03C0
1FF0
3838
700C
600C
6006
7F06
C106
C106
C1FE
61FE
600C
600C
3018
1C78
0FE0
ENDCHAR
STARTCHAR uni13EC.alt
ENCODING -1
SWIDTH 984 0
DWIDTH 24 0
BBX 20 16 2 0
BITMAP
1C0100
7E07C0
C30C60
C30830
C11830
818830
810E30
C30630
C30030
C30030
C60060
6C0060
7800C0
380180
0F9F00
03FC00
ENDCHAR
STARTCHAR uni13ED.alt
ENCODING -1
SWIDTH 587 0
DWIDTH 14 0
BBX 12 16 1 0
BITMAP
0700
1FC0
30E0
3060
6060
2030
3030
3830
1C30
0F30
03E0
C060
C060
60C0
7380
3F00
ENDCHAR
STARTCHAR uni13EE.alt
ENCODING -1
SWIDTH 585 0
DWIDTH 14 0
BBX 10 16 2 0
BITMAP
0E00
3FC0
70C0
60C0
C040
C000
C400
FF80
E1C0
C0C0
C040
C040
C0C0
C0C0
7180
3F00
ENDCHAR
STARTCHAR uni13EF.alt
ENCODING -1
SWIDTH 991 0
DWIDTH 24 0
BBX 21 16 1 0
BITMAP
003E00
01FFC0
0180E0
000070
000030
000018
000018
638D18
43DF18
C07018
C06018
C06018
C07018
60F030
739CE0
3F0FC0
ENDCHAR
STARTCHAR uni13F0.alt
ENCODING -1
SWIDTH 728 0
DWIDTH 17 0
BBX 15 22 1 -6
BITMAP
0070
01FC
0306
0606
0606
060C
061C
0630
0638
C61C
C606
C606
6606
7606
3E1C
0FF8
0600
0600
0600
0600
0600
0600
ENDCHAR
STARTCHAR uni13F1.alt
ENCODING -1
SWIDTH 767 0
DWIDTH 18 0
BBX 17 16 1 0
BITMAP
03E000
03E000
008000
008000
01E000
01FC00
030E00
CE0300
7C0300
302300
30C180
318100
318300
E18300
81CE00
00FC00
ENDCHAR
STARTCHAR uni13F2.alt
ENCODING -1
SWIDTH 712 0
DWIDTH 17 0
BBX 15 16 1 0
BITMAP
03C0
0FF0
1818
1838
3010
3000
3000
37E0
3C30
3818
3018
3018
3018
3018
3018
FC7E
ENDCHAR
STARTCHAR uni13F3.alt
ENCODING -1
SWIDTH 759 0
DWIDTH 18 0
BBX 17 16 1 0
BITMAP
078000
1FE480
383F80
301B00
601200
600000
600000
C00000
C00000
C03E00
600800
600800
601800
303800
3C6800
0FC800
ENDCHAR
STARTCHAR uni13F4.alt
ENCODING -1
SWIDTH 676 0
DWIDTH 16 0
BBX 13 16 2 0
BITMAP
FC00
FFE0
3070
3030
3030
3030
3030
3FC0
3FE0
3030
3018
3018
3018
3030
31F0
FFC0
ENDCHAR
STARTCHAR uni13F5.alt
ENCODING -1
SWIDTH 716 0
DWIDTH 17 0
BBX 15 16 1 0
BITMAP
0018
00F8
07C0
0E00
1C00
3000
6000
6000
6000
C03E
C018
E018
6018
7018
3C38
1FF0
ENDCHAR
STARTCHAR caroncommaaccent
ENCODING -1
SWIDTH 500 0
DWIDTH 12 0
BBX 2 4 5 14
BITMAP
C0
C0
80
80
ENDCHAR
STARTCHAR commaaccentrotate
ENCODING -1
SWIDTH 500 0
DWIDTH 12 0
BBX 4 3 4 15
BITMAP
30
60
E0
ENDCHAR
STARTCHAR commaaccent2
ENCODING -1
SWIDTH 500 0
DWIDTH 12 0
BBX 3 4 4 -5
BITMAP
60
60
60
C0
ENDCHAR
ENDFONT
